<?xml version="1.0" standalone="no"?>
<svg xmlns="http://www.w3.org/2000/svg" xmlns:xlink="http://www.w3.org/1999/xlink" version="1.1" baseProfile="full" onload="init(evt)">
	<title>SVG | Glen Cheney</title>
	<style type="text/css">
		<![CDATA[
		/*CSS*/
		
		.home {
			stroke: #222222;
			fill: #CCCCCC;
			stroke-width: 3px;
		}
		.grayOrange {
			stroke:#FF9900;
			fill:#333333;
			stroke-width: 2px;
		}
		.rain {
			stroke:#0033CC;
			fill:#0066FF;
			stroke-width: 2px;
		}
		.link {
			cursor: pointer;
		}
		.description {
			font-size: 20px;
		}
		#currentWeather {
			fill: white;
		}
		]]>
	</style>
	<script type="text/javascript">
 		<![CDATA[
 		//Javascript
 		
 		var svgns="http://www.w3.org/2000/svg";
 		var xlinkns="http://www.w3.org/1999/xlink";
 		var isRaining = false;
 		var isSunny = false;
 		var isSnowing = false;
 		var isMoon = false;
 	
 		function init(evt)
 		{
 			//Save the memory space
 			if(window.svgDocument == null)
 			{
 				svgDocument=evt.target.ownerDocument;
 			}
 			
 			showWeather();
 			
 			//Add the colorful ball on the antenna
 			var cirElement = svgDocument.createElementNS(svgns, 'circle');
 			cirElement.setAttributeNS(null, 'cx', '1060px');
 			cirElement.setAttributeNS(null, 'cy', '190px');
 			cirElement.setAttributeNS(null, 'r', '20px');
 			cirElement.setAttributeNS(null, 'fill', 'red');
 			cirElement.setAttributeNS(null, 'stroke', 'black');
 			cirElement.setAttributeNS(null, 'stroke-width', '1px');
 			
 			//Choose some random colors for it to cycle through
 			var an = svgDocument.createElementNS(svgns, 'animateColor');
 			an.setAttributeNS(null, 'attributeName', 'fill');
 			an.setAttributeNS(null, 'dur', '5s');
 			an.setAttributeNS(null, 'values', 'red;' + color() + ';' + color() + ';' + color() + ';' + color() + ';' + 'red');
 			an.setAttributeNS(null, 'repeatCount', 'indefinite');
 			
 			cirElement.appendChild(an)
 			$('controller').appendChild(cirElement);
 			$('controller').$$('animateColor',0).beginElement();
 		}
 		
 		function $(which)
 		{
 			return document.getElementById(which);
 		}
 		function $$(tag, index)
 		{
 			return document.getElementsByTagName(tag)[index];
 		}
 		function color()
 		{
 			//Returns a random rgb() color
 			return 'rgb(' + Math.round(Math.random()*255) + ',' + Math.round(Math.random()*255) + ',' + Math.round(Math.random()*255) + ')';
 		}
 		function sun()
 		{
 			if(isMoon)
 			{
 				removeKids($('myMoon'));
 				isMoon = false;
 			}
 			if(!isSunny)
 			{
 				//Use the sun
		 		var sun = svgDocument.createElementNS(svgns, 'use');
		 		sun.setAttributeNS(xlinkns, 'xlink:href', '#sun');
		 		sun.setAttributeNS(null, 'transform', 'translate(0,0)');
		 		
		 		//Move the sun --->
		 		var an = svgDocument.createElementNS(svgns, 'animateTransform');
		 		an.setAttributeNS(null, 'attributeName', 'transform');
		 		an.setAttributeNS(null, 'type', 'translate');
		 		an.setAttributeNS(null, 'from', '-50,100');
		 		an.setAttributeNS(null, 'to', '1280,100');
		 		an.setAttributeNS(null, 'dur', '6s');
		 		an.setAttributeNS(null, 'repeatCount', 'indefinite');
		 		an.setAttributeNS(null, 'additive', 'sum');
		 		
		 		//Rotate the sun
		 		var an2 = svgDocument.createElementNS(svgns, 'animateTransform');
		 		an2.setAttributeNS(null, 'attributeName', 'transform');
		 		an2.setAttributeNS(null, 'type', 'rotate');
		 		an2.setAttributeNS(null, 'from', '0');
		 		an2.setAttributeNS(null, 'to', '720');
		 		an2.setAttributeNS(null, 'dur', '6s');
		 		an2.setAttributeNS(null, 'repeatCount', 'indefinite');
		 		an2.setAttributeNS(null, 'additive', 'sum');
		 		
		 		sun.appendChild(an);
		 		sun.appendChild(an2);
		 		$('mySun').appendChild(sun);
		 		
		 		isSunny = true;
	 		}
	 		else
	 		{
	 			removeKids($('mySun'));
	 			isSunny = false;
	 		}
	 		showWeather();
 		}
 		function rain()
 		{
 			if(!isRaining)
 			{
	 			for(var i = 0; i < 20; i++)
	 			{
	 				//Create random numbers for x, y, and dur
		 			var randX = Math.round(Math.random()*1400)-200;
		 			var randY = Math.round(Math.random()*350)+400;
		 			var randDur = Math.random()*4 + .25;
		 			
		 			var rainDrop = svgDocument.createElementNS(svgns, 'use');
		 			rainDrop.setAttributeNS(xlinkns, 'xlink:href', '#raindrop');
		 			
		 			//Animate the raindrops to make them look like rain
		 			var an = svgDocument.createElementNS(svgns, 'animateTransform');
		 			an.setAttributeNS(null, 'attributeName', 'transform');
		 			an.setAttributeNS(null, 'type', 'translate');
		 			an.setAttributeNS(null, 'from', randX + ',10');
		 			an.setAttributeNS(null, 'to', randX + ',' + randY);
		 			an.setAttributeNS(null, 'dur', randDur + 's');
		 			//an.setAttributeNS(null, 'begin','0s');
		 			an.setAttributeNS(null, 'repeatCount', 'indefinite');
		 			an.setAttributeNS(null, 'additive', 'sum');
		 			
		 			rainDrop.appendChild(an);
		 			$('myRain').appendChild(rainDrop);
		 			//$('myRain').$$('animateTransform', $('weather').document.getElementsByTagName('animateTransform').length-1).beginElement();
	 			}
	 			isRaining = true;
	 		}
	 		else
	 		{
	 			//Remove the rain
	 			removeKids($('myRain'));
	 			isRaining = false;
	 		}
	 		showWeather();
 		}
 		function moon()
 		{
 			if(isSunny)
 			{
 				removeKids($('mySun'));
 				isSunny = false;
 			}
 			if(!isMoon)
 			{
 				//Add the moon
		 		var moon = svgDocument.createElementNS(svgns, 'use');
		 		moon.setAttributeNS(xlinkns, 'xlink:href', '#moon');
		 		moon.setAttributeNS(null, 'id', 'theMoon');
	  			moon.setAttributeNS(null, 'transform', 'translate(50,-100)');
		 		
		 		//Drop the moon down from the top of the screen
		 		var an = svgDocument.createElementNS(svgns, 'animateTransform');
		 		an.setAttributeNS(null, 'attributeName', 'transform');
		 		an.setAttributeNS(null, 'type', 'translate');
		 		an.setAttributeNS(null, 'from', '50,-100');
		 		an.setAttributeNS(null, 'to', '50,50');
		 		an.setAttributeNS(null, 'dur', '1s');
		 		an.setAttributeNS(null, 'fill', 'freeze');
		 		an.setAttributeNS(null, 'restart', 'never');
		 		an.setAttributeNS(null, 'id', 'slide');
		 		
		 		//Make the background dark blue
		 		var an2 = svgDocument.createElementNS(svgns, 'animate')
		 		an2.setAttributeNS(xlinkns, 'xlink:href' , '#nightBG');
		 		an2.setAttributeNS(null, 'attributeName' , 'opacity');
		 		an2.setAttributeNS(null, 'from' , '0');
		 		an2.setAttributeNS(null, 'to' , '1');
		 		an2.setAttributeNS(null, 'fill' , 'freeze');
		 		an2.setAttributeNS(null, 'begin' , 'slide.end');
		 		an2.setAttributeNS(null, 'dur' , '1.5s');
		 		
		 		//Makes the grass darker
		 		var an3 = svgDocument.createElementNS(svgns, 'animate')
		 		an3.setAttributeNS(xlinkns, 'xlink:href' , '#grass');
		 		an3.setAttributeNS(null, 'attributeName' , 'fill');
		 		an3.setAttributeNS(null, 'from' , '#00bb33');
		 		an3.setAttributeNS(null, 'to' , '#006600');
		 		an3.setAttributeNS(null, 'fill' , 'freeze');
		 		an3.setAttributeNS(null, 'begin' , 'slide.end');
		 		an3.setAttributeNS(null, 'dur' , '1.5s');
		 		
		 		//Add all these elements to the page and start the animation.
		 		moon.appendChild(an);
		 		$('myMoon').appendChild(moon);
		 		$('myMoon').appendChild(an2);
		 		$('myMoon').appendChild(an3);
		 		$('theMoon').firstChild.beginElement();
		 		
		 		isMoon = true;
	 		}
	 		else
	 		{
	 			removeKids($('myMoon'));
	 			isMoon = false;
	 		}
	 		showWeather();
 		}
 		function snow()
 		{
 			if(!isSnowing)
 			{
	 			for(var i = 0; i < 10; i++)
	 			{
	 				//Create random numbers for x, y, and dur
		 			var randX = Math.round(Math.random()*1400)-200;
		 			var randY = Math.round(Math.random()*350)+400;
		 			var randDur = Math.random()*4 + .25;
		 			//var randScale = '.' + (Math.round(Math.random()*30)+20);
		 			
		 			var flake = svgDocument.createElementNS(svgns, 'use');
		 			flake.setAttributeNS(xlinkns, 'xlink:href', '#smallFlake');
		 			//flake.setAttributeNS(null, 'transform', 'scale(' + randScale + ')');
		 			
		 			//Animate the snow to make them look like its snowing
		 			var an = svgDocument.createElementNS(svgns, 'animateTransform');
		 			an.setAttributeNS(null, 'attributeName', 'transform');
		 			an.setAttributeNS(null, 'type', 'translate');
		 			an.setAttributeNS(null, 'from', randX + ',10');
		 			an.setAttributeNS(null, 'to', randX + ',' + randY);
		 			an.setAttributeNS(null, 'dur', randDur + 's');
		 			an.setAttributeNS(null, 'repeatCount', 'indefinite');
		 			
		 			flake.appendChild(an);
		 			$('mySnow').appendChild(flake);
		 			//$('mySnow').$$('animateTransform', $('weather').document.getElementsByTagName('animateTransform').length-1).beginElement();
	 			}
	 			for(var j = 0; j < 10; j++)
	 			{
	 				//Create random numbers for x, y, and dur
		 			var randX = Math.round(Math.random()*1400)-200;
		 			var randY = Math.round(Math.random()*350)+400;
		 			var randDur = Math.random()*4 + .25;
		 			
		 			var flake = svgDocument.createElementNS(svgns, 'use');
		 			flake.setAttributeNS(xlinkns, 'xlink:href', '#smallerFlake');
		 			//flake.setAttributeNS(null, 'transform', 'scale(' + randScale + ')');
		 			
		 			//Animate the snow to make them look like its snowing
		 			var an = svgDocument.createElementNS(svgns, 'animateTransform');
		 			an.setAttributeNS(null, 'attributeName', 'transform');
		 			an.setAttributeNS(null, 'type', 'translate');
		 			an.setAttributeNS(null, 'from', randX + ',10');
		 			an.setAttributeNS(null, 'to', randX + ',' + randY);
		 			an.setAttributeNS(null, 'dur', randDur + 's');
		 			an.setAttributeNS(null, 'repeatCount', 'indefinite');
		 			
		 			flake.appendChild(an);
		 			$('mySnow').appendChild(flake);
		 			//$('mySnow').$$('animateTransform', $('weather').document.getElementsByTagName('animateTransform').length-1).beginElement();
		 			
	 			}
	 			
	 			//Makes the grass white with snow
		 		var an3 = svgDocument.createElementNS(svgns, 'animate')
		 		an3.setAttributeNS(xlinkns, 'xlink:href' , '#grass');
		 		an3.setAttributeNS(null, 'attributeName' , 'fill');
		 		an3.setAttributeNS(null, 'from' , '#00BB33');
		 		an3.setAttributeNS(null, 'to' , '#FFFFFF');
		 		an3.setAttributeNS(null, 'fill' , 'freeze');
		 		//an3.setAttributeNS(null, 'begin' , '1s');
		 		an3.setAttributeNS(null, 'dur' , '4s');
		 		
		 		$('mySnow').appendChild(an3);
		 		$('mySnow').lastChild.beginElement();
	 			isSnowing = true;
	 		}
	 		else
	 		{
	 			//Remove the rain
	 			removeKids($('mySnow'));
	 			isSnowing = false;
	 		}
	 		showWeather();
 		}
 		function removeKids(parent)
 		{
 			//I wish I had getElementsByClassName right now....
 			for(var k = parent.childNodes.length; k > 0; k--)
	 		{
	 			parent.removeChild(parent.childNodes[k-1]);
	 		}
 		}
 		function showWeather()
 		{
 			if(isSunny)
 				$('sunnyText').setAttributeNS(null, 'fill', '#FF0');
 			else
 				$('sunnyText').setAttributeNS(null, 'fill', '#FFF');
 			if(isRaining)
 				$('rainingText').setAttributeNS(null, 'fill', '#06F');
 			else
 				$('rainingText').setAttributeNS(null, 'fill', '#FFF');
 			if(isMoon)
 				$('moonlightText').setAttributeNS(null, 'fill', '#03C');
 			else
 				$('moonlightText').setAttributeNS(null, 'fill', '#FFF');
 			if(isSnowing)
 				$('snowingText').setAttributeNS(null, 'fill', '#F90');
 			else
 				$('snowingText').setAttributeNS(null, 'fill', '#FFF');
 			if(!isSunny && !isRaining && !isMoon && !isSnowing)
 				$('calmText').setAttributeNS(null, 'fill', '#0B3');
 			else
 				$('calmText').setAttributeNS(null, 'fill', '#FFF');
 		}
 		function revert()
 		{
 			removeKids($('mySun'));
 			removeKids($('myMoon'));
 			removeKids($('myRain'));
 			removeKids($('mySnow'));
 			
 			isRaining = false;
 			isSunny = false;
 			isSnowing = false;
 			isMoon = false;
 			
 			showWeather();
 		}
 		function displayMe(which, HorS)
 		{
 			if(HorS == 'show')
 				which.getElementsByTagName('text')[0].setAttributeNS(null, 'display', 'block');
 			else if(HorS == 'hide')
 				which.getElementsByTagName('text')[0].setAttributeNS(null, 'display', 'none');
 		}
		]]>
	</script>
	<defs>
        <path id="drop" d="M1,17.526c0,33,33.837-9.073,83.333,10.145C55.348,1.584,1-9.285,1,17.526z"/>
		<g id="raindrop">
			<use xlink:href="#drop" transform="rotate(-90) scale(.7)" class="rain" />
		</g>
        <g id="cluster">
        	<use xlink:href="#drop" transform="rotate(0)" fill-opacity="0.5" class="grayOrange"/>
        	<use xlink:href="#drop" transform="rotate(120)" fill-opacity="0.5" class="grayOrange"/>
        	<use xlink:href="#drop" transform="rotate(240)" fill-opacity="0.5" class="grayOrange"/>
        </g>
        <g id="supercluster">
            <use xlink:href="#cluster" transform="rotate(0)"/>
            <use xlink:href="#cluster" transform="rotate(15) scale(0.75)"/>
            <use xlink:href="#cluster" transform="rotate(30) scale(0.5)"/>
        </g>
        <pattern id="tile" height="145" width="140" patternUnits="userSpaceOnUse" overflow="visible">
            <use xlink:href="#supercluster" transform="translate(65,85)"/>
            <use xlink:href="#supercluster" transform="translate(140,55) scale(.6) rotate(180)"/>
            <use xlink:href="#supercluster" transform="translate(0,55) scale(.6) rotate(180)"/>
        </pattern>
		<path id="sun" fill="#FFFF00" stroke="#000000" d="M33.908,137.659l25.794-6.645c4.27,2.989,8.952,5.413,13.928,7.182l13.033,26.918
		l16.593-24.452c2.764-0.484,5.453-1.167,8.057-2.019l26.422,11.9l-2.698-26.771c1.639-1.694,3.169-3.49,4.591-5.368l29.663-6.261
		L150.85,91.604c0.227-1.581,0.388-3.179,0.484-4.793l21.643-18.335l-26.849-9.629c-0.452-0.98-0.933-1.944-1.436-2.894
		l9.663-26.924l-29.395,5.314c-3.132-2.042-6.466-3.792-9.964-5.208l-9.675-25.755l-17.917,21.8c-3.051,0.3-6.025,0.83-8.912,1.573
		L54.436,12.142l-0.619,27.992c-0.833,0.758-1.645,1.535-2.431,2.343l-29.609,0.861l15.085,24.458
		c-0.661,2.412-1.175,4.881-1.522,7.4l-22.402,16.25l25.202,11.245c0.94,2.661,2.064,5.226,3.36,7.686L33.908,137.659z"/>
		<path id="moon" fill="#FFFFFF" stroke="#000000" d="M88,116c-34,0-63-28-63-63 c0-19,9.285-37,23.759-49C23,12,4,36,4,64c0,34,28,63,63,63 c14,0,28-5,39-13C101,115,94,116,88,116z"/>
		<path id="snowflake" fill-rule="evenodd" clip-rule="evenodd" fill="#FFFFFF" stroke="#FFFFFF" d="M117.57,1.147
			c-0.978,3.279-2.188,6.325-3.38,9.391c2.217,0.589,5.126,1.89,7.513,1.127l0.188,0.563l0.563-0.188
			c0.175,0.718-1.158,1.616,0.375,1.502l-0.188,0.563l0.563,0.188c-3.15,0.891-6.695-1.064-9.392-1.878
			c-1.105,0.146-0.734,1.77-1.502,2.253c1.225,1.405,4.717,0.542,6.386,1.503l-0.188,0.563l0.188,0.563c-2.379,0-4.758,0-7.136,0
			c-1.443,2.063-2.183,4.829-3.381,7.137c1.963,1.73,4.27-0.738,7.137-0.376l-0.188,0.564l0.564,0.188
			c-0.01,0.365-0.46,0.292-0.751,0.376c1.385,0.869,4.377,0.131,6.386,0.375l-0.188,0.563l0.188,0.563
			c-0.061,0.44-0.686,0.317-1.127,0.376c-0.154,0.905,0.687,0.816,0.376,1.878l-0.563-0.188l-0.188,0.563
			c-2.689-2.193-7.917-1.848-12.771-1.878c-0.535,0.716-0.873,1.631-1.126,2.629c1.923,0.787,5.026-0.476,7.888,0l-0.188,0.563
			l0.563,0.188c-2.661,1.096-5.994,1.519-9.015,2.254c3.641,1.265,9.103,0.82,12.395-0.375l-0.187,0.564l0.563,0.188
			c0.069,0.319-0.146,0.354-0.376,0.375c0.728,0.851,2.289,0.865,3.381,0.376l-0.188,0.563l0.563-0.188
			c0.381,0.996,1.736,1.018,2.253,1.878h-0.375v0.375c-0.438-0.061-0.668,0.083-0.751,0.375l-0.563-0.188l0.188,0.563
			c-4.952-1.809-12.267-1.256-18.782-1.502c-0.949,1.43-1.421,3.336-2.254,4.883c2.784,2.07,7.269,0.623,10.518,0l0.188,0.563
			l0.188,0.563c-0.231,0.521-1.446,0.057-1.502,0.751c0.694,0.558,1.784,0.72,3.004,0.751l-0.188,0.563l0.563-0.188
			c-0.115,0.867,1.086,0.417,1.127,1.127l-0.563,0.187l0.188,0.564c-0.694,0.718,1.642,1.595,1.878,2.629l-0.639,0.263l-0.488,0.488
			c-3.82-3.066-9.795-3.978-15.776-4.883c-0.3,1.202-1.11,1.896-1.126,3.381c0.437-0.061,0.668,0.083,0.751,0.375l-0.563,0.438
			l0.188,0.688c-0.501,0-1.002,0-1.503,0c-0.025,1.967-2.134,3.469-1.502,4.883c4.112,0.845,5.789-0.353,8.264-1.878l-0.188,0.563
			l0.563,0.188c-0.11,0.766-1.016,0.737-1.127,1.503c1.601-0.152,3.87,0.364,4.883-0.376l0.438,0.563l0.689-0.188
			c0.01,0.365,0.459,0.291,0.751,0.375l-0.188,0.751l0.188,0.751c-0.319-0.069-0.354,0.147-0.375,0.376l-0.563,0.188l0.188,0.563
			c-4.721-0.539-9.846-0.671-15.025-0.751c-1.555,3.578-3.33,6.937-4.507,10.893c1.976,0.779,4.215,1.294,5.634,2.63
			c-0.225,2.228,0.659,3.347,0.375,5.634c4.151-0.106,7.466-1.048,11.644-1.127c1.342-4.793,2.712-9.559,3.757-14.649l0.563,0.188
			l0.188-0.563c0.125,0,0.25,0,0.375,0l0.751,0.188l0.751-0.188c0,0.376,0,0.751,0,1.127c0.906,0.154,0.817-0.686,1.879-0.375
			c-1.36,1.276-3.714,3.54-2.63,6.01c0.01-0.366,0.46-0.292,0.751-0.376l-0.188,0.563l0.563,0.188
			c-1.804,1.455-4.366,4.143-3.005,7.512c1.004-0.749,3.312-0.194,4.508-0.751c-0.12-0.871,0.06-1.442,0.375-1.878l0.563,0.188
			l0.188-0.563c0.809,0.317,0.317,1.937,1.126,2.254c0.322-0.929,2.615,0.11,3.005-0.751c0.87-6.11,1.621-11.94-0.376-17.279
			l0.689,0.188l0.438-0.563c1.01,0.63,1.161,4.081,2.253,3.38l0.376,0.188l0.375,0.188c0.715,0.704,0.943,0.041,1.878,0
			c-1.342,0.536-0.828,2.928-1.502,4.132c0.763,0.858,1.348-1.636,2.254-1.878l0.188,0.563l0.188,0.563
			c-1.31,3.198-3.898,5.117-3.381,10.142c2.148,0.27,3.355-0.401,5.258-0.376c1.589-2.075,1.514-4.949,2.254-7.888
			c0.878-3.488,2.633-6.557,1.878-10.518l0.376,0.188l0.375-0.188c0.319,0.069,0.354-0.146,0.376-0.376l0.563,0.188l0.188-0.563
			c0.816-0.063,0.17,1.333,0.376,1.878c0.375,0,0.751,0,1.127,0l-0.188,0.375l0.188,0.375c-0.829,0.32-1.776,2.453-0.751,3.381
			l0.188,0.563l0.563-0.188c-2.293,2.965-3.295,7.222-4.132,11.645c1.957-1.799,2.551-4.962,4.508-6.761l0.188,0.563l0.563-0.188
			c-0.556,2.198-1.438,4.071-1.878,6.386c0.546,1.113,1.465-0.495,2.63,0c1.348-3.794,3.46-8.638,2.253-12.771l0.689,0.188
			l0.438-0.563c1.336,1.226,1.483-1.015,2.254-1.503l0.188,0.564l0.563-0.188c-0.207,2.429-1.921,5.333-1.502,7.137l0.188,0.563
			l0.563-0.188c-0.31,2.57-2.294,3.465-2.63,6.01c2.095,0.833,5.105-0.649,7.889-0.376c1.654-1.852,1.358-5.654,2.629-7.888
			l0.563,0.188l0.563,0.188c-0.308,2.446-0.6,4.909-1.126,7.137c1.393,0.266,1.612-0.642,3.005-0.376
			c0.36-3.021-0.803-7.564,0.751-9.391l0.188,0.563l0.564-0.188c0.06,0.44,0.685,0.317,1.127,0.375l-0.188,0.688l0.563,0.438
			c-1.128,1.502-0.88,4.378-1.127,6.761c3.539,1.155,7.537-0.473,11.645,0l-0.188,0.563l0.563,0.188
			c-3.437,1.196-7.943,1.323-11.645,2.254c0.678,2.702,1.178,5.584,3.005,7.137l-0.564,0.188l0.188,0.563c-0.376,0-0.751,0-1.127,0
			c0.199,0.303,0.392,0.61,0.375,1.127l-0.563-0.188l-0.188,0.563c-2.054-1.952-2.228-5.786-3.005-9.015c-1.001,0-2.003,0-3.005,0
			c0.57,2.31,1.864,3.895,2.253,6.386l-0.563,0.188l-0.188,0.563c-1.448-2.058-2.595-4.416-3.756-6.761
			c-2.67,0.461-5.838,0.423-8.264,1.127c0.637,2.745,3.473,3.289,4.132,6.01l-0.376-0.188l-0.375,0.188c-0.125,0-0.251,0-0.375,0
			c0.827,2.554,2.553,4.208,3.38,6.762l-0.563-0.188l-0.188,0.563c-0.55-0.327-1.19-0.562-1.127-1.502
			c-1.179-0.178-0.992,1.011-1.877,1.127l-0.188-0.563l-0.563-0.188c0.293-5.677-3.218-7.55-4.508-11.644c-1.001,0-2.003,0-3.005,0
			c0.446,2.559,2.327,3.684,3.005,6.01l-0.563-0.188l-0.188,0.564c-2.1-1.532-3.534-3.728-5.635-5.259
			c1.846,3.914,3.631,7.889,6.762,10.518l-0.563,0.188l0.188,0.563c-0.25,0-0.501,0-0.751,0c0.228,1.399,0.932,2.323,1.878,3.005
			l-0.188,0.376l0.188,0.375c-1.13-0.378-0.667,0.836-0.751,1.502l-0.376-0.188l-0.375,0.188c-0.32-0.069-0.354,0.146-0.375,0.375
			l-0.375-0.188l-0.376-0.188c-1.622-6.642-5.484-11.043-7.888-16.903c-1.634,0.494-3.856,0.401-5.634,0.751
			c0.392,4.868,3.654,6.863,6.01,9.766l-0.564,0.188l0.188,0.563c-1.318,0.067-1.235-1.269-2.253-1.502
			c-0.83,0.612,0.524,2.205,0.751,3.005l-0.563,0.188l0.188,0.563c0,0.25,0,0.501,0,0.751L127.9,88.48l-0.563,0.188
			c-1.103,1.027-0.594,3.664-1.503,4.884l-0.438-0.564l-0.688,0.188c0.979-7.991-1.851-12.172-3.38-17.654
			c-1.453-0.201-1.834,0.67-3.381,0.375c0,0.501,0,1.002,0,1.503l-0.688-0.188l-0.438,0.563c-0.504-0.247-0.7-0.803-0.751-1.503
			c-2.043-0.04-3.897,0.109-5.259,0.752c0.99,3.142,3.047,5.216,6.01,6.385l-0.563,0.188l0.188,0.564
			c-1.062,0.31-0.974-0.529-1.878-0.376c0.508,1.997,1.504,3.504,3.004,4.507l-0.563,0.188l0.188,0.563c0,0.376,0,0.751,0,1.127
			l-0.689-0.188l-0.438,0.564c-0.304,0.071-0.375,0.376-0.751,0.375l-0.188-0.563l-0.563,0.188c-1.841-4.92-4.556-8.968-6.762-13.522
			c-3.728,0.654-8.031,0.733-11.644,1.502c0.316,1.812,0.514,3.743,0.751,5.635c-1.204,1.8-3.413,2.597-4.883,4.131
			c2.687,1.235,3.885,8.29,7.512,9.016c1.724,0.344,4.738-1.216,7.137-1.878c2.327-0.642,4.83-1.163,6.761-2.254l0.188,0.563
			l0.563-0.188c0,0.25,0,0.5,0,0.751l0.094,0.751l0.658,0.376c-0.093,0.408-0.747,0.254-0.751,0.751l-0.563,0.188l0.188,0.563
			c-1.846-0.516-3.945,0.081-5.258,1.126c0.303,0.324,1.029,0.224,1.127,0.752l-0.563,0.188l0.188,0.563
			c-2.84-1.39-5.694-1.094-8.264,0.376c0.704,1.675,1.846,2.912,3.005,4.131c0.116-0.509,0.94-0.312,1.502-0.375l-0.188,0.563
			l0.563,0.188c-1.695,1.33,0.448,2.288,0.751,3.756c5.981-1.907,11.468-4.309,15.025-8.639l0.456,0.51l0.671-0.134
			c-0.365,1.513-1.457,2.299-2.254,3.38c0.01,0.365,0.46,0.292,0.751,0.376l-0.188,0.375l0.188,0.375
			c-0.42,0.542-0.405,0.917,0.375,1.127c-1.409,0.469-2.755,1.001-4.132,1.502c0.815,0.563,2.115,0.641,3.381,0.751l0.188,0.563
			l0.188,0.564c-4.792-0.16-9.455-0.19-12.02,1.877c0.524,2.106,2.401,2.857,3.004,4.883c5.882-1.882,12.646-2.88,17.654-5.634v0.375
			h0.376c0.21,1.088,0.586-0.577,1.127-0.375l0.062,0.438l0.313,0.313c-0.254,0.874-1.248,1.006-1.502,1.878l-0.188,0.375
			l0.188,0.376c-1.13-0.461-3.062-0.267-3.38,1.127l-0.188,0.563l0.188,0.564c-4.717-1.479-8.159,1.279-12.02,1.878
			c2.133,0.873,5.882,0.128,8.639,0.375l-0.188,0.564l0.563,0.188c-2.09,1.04-5.199,1.062-7.512,1.878
			c0.072,1.305,1.328,1.426,1.502,2.629c3.969-1.665,9.793-1.476,12.02-4.883l0.439,0.563l0.688-0.188c0,0.375,0,0.751,0,1.127
			c0.279,0.847,2.107,0.146,3.005,0.375l-0.188,0.563l0.563,0.187c-2.2,1.307-6.062,0.951-7.889,2.63l-0.188,0.375l0.188,0.375
			c-1.671,0.833-5.007,0.001-6.761,0.752c1.312,2.569,3.213,4.55,4.883,6.761c2.803-0.327,4.982-1.278,7.513-1.878l-0.134,0.671
			l0.51,0.456c-1.753,1.251-4.24,1.769-6.386,2.629c0.41,0.968,0.95,1.806,1.878,2.254c2.686-1.196,4.542-3.221,7.888-3.756
			l-0.188,0.563l0.188,0.563c0,0.125,0,0.251,0,0.376l-0.563,0.439l0.188,0.688c-2.607,0.398-4.007,2.002-6.385,2.63
			c1.035,2.972,3.224,4.789,4.507,7.512l-0.488,0.489l-0.263,0.638c-2.057-2.074-3.921-4.343-5.634-6.761
			c-2.292,0.965-3.146,3.366-4.883,4.884l-0.789,0.037l-0.338,0.713c-0.305-0.071-0.375-0.376-0.751-0.375l-0.188-0.563l-0.563,0.188
			c1.476-2.657,3.91-4.355,6.01-6.386c-0.409-0.968-0.949-1.806-1.878-2.254c-1.33,1.425-2.301,3.208-3.756,4.507l-0.262-0.638
			l-0.489-0.489c1.06-1.82,2.038-3.721,3.381-5.259c-0.478-1.115-1.58-1.972-2.63-3.38c-0.491-0.66-1.675-3.407-2.253-3.381
			c-2.476,0.113-1.121,5.223-3.38,6.762l-0.376-0.188l-0.376,0.188c0-0.25,0-0.5,0-0.751c-1.783,1.598-2.349,4.413-4.131,6.01
			l-0.188-0.563l-0.563,0.187c0.125-1.055,1.886-3.037-0.751-2.629l0.188-0.689l-0.563-0.438c4.446-1.564,5.343-6.677,8.264-9.766
			c0.077-1.58-1.428-1.578-1.502-3.005c-1.924,1.582-2.306,4.706-4.132,6.386l-0.188-0.564l-0.564,0.188
			c0.681-2.699,1.626-5.135,2.254-7.888c-2.48,2.904-4.809,5.959-5.635,10.517l-0.563-0.188l-0.563,0.188c0-0.125,0-0.25,0-0.375
			c-0.948,0.555-1.552,1.453-1.878,2.629l-0.563-0.188l-0.188,0.563c-0.716,0.162-0.944,0.81-1.879,0.752l0.188-0.376l-0.188-0.376
			c0.07-0.319-0.146-0.354-0.375-0.375v-0.375h-0.375c4.397-4.242,7.04-10.238,10.518-15.4c-0.745-1.759-2.261-2.748-3.006-4.507
			c-4.174,1.459-4.143,7.125-6.009,10.893l-0.188-0.563l-0.564-0.188c-0.183-1.186,0.678-1.327,0.376-2.629
			c-0.713-0.321-2.537,1.456-2.253,3.38c-0.775-0.102-0.09-1.663-1.127-1.502l-0.188-0.564l-0.564,0.188c0-0.125,0-0.25,0-0.375
			c-1.545,0.208-2.429,1.077-4.131,1.127l0.188-0.688l-0.563-0.438c5.585-2.303,8.866-6.909,12.396-11.269
			c-0.145-1.483-1.214-2.042-1.878-3.005c-0.247,0.504-0.803,0.7-1.502,0.751l0.188-0.563l-0.563-0.188
			c-0.28-1.156,1.031-0.722,0.751-1.877c-1.471-0.784-1.469-3.039-3.38-3.381c-1.667,2.426-3.085,3.587-2.254,7.888l-0.564-0.188
			l-0.188,0.564c-0.762-0.24-0.247-1.756-1.127-1.878c-0.862,1.892-2.404,3.104-1.877,6.386c-0.54-0.498-0.947-1.719-1.879-0.751
			l-0.338-0.714l-0.789-0.038c-0.01-0.365-0.459-0.291-0.75-0.375l0.187-0.563l-0.563-0.188c3.539-3.724,5.984-8.54,8.639-13.147
			c-2.445-2.938-4.335-6.434-7.137-9.015c-1.644,1.11-2.952,2.557-4.883,3.38c-1.777-0.726-3.551-1.457-5.258-2.254
			c-1.636,3.248-2.687,7.079-4.508,10.142c3.031,4.231,6.985,7.54,10.894,10.894l-0.188,0.563l0.563,0.188
			c-0.093,0.408-0.747,0.255-0.751,0.751l-0.188,0.563l-0.188,0.563c-1.293-1.299-1.209,0.697-2.254,0.75
			c0.094-2.973-1.881-3.878-3.38-5.258c-0.224,0.778,0.464,2.467-0.375,2.629l-0.188-0.563l-0.563-0.188
			c-0.183-3.824-1.866-6.147-4.883-7.137c-0.43,2.024-2.541,4.18-0.375,5.634l-0.564,0.188l-0.188,0.563c-0.501,0-1.002,0-1.502,0
			c-0.228,1.15-0.798,1.957-1.127,3.005c4.634,3.379,8.976,7.051,15.776,8.264l-0.563,0.438l0.188,0.689
			c-1.737,0.466-3.716-0.767-4.507,0l-0.564,0.188l0.188,0.563c-1.129-0.378-0.666,0.837-0.751,1.503
			c-0.775-1.354-1.841-2.416-3.381-3.005c-0.154,0.905,0.686,0.817,0.375,1.878l-0.563-0.188l-0.188,0.564
			c-2.078-2.932-3.726-6.292-7.137-7.889c-0.948,1.431-1.421,3.337-2.253,4.883c4.027,4.862,8.41,9.37,13.898,12.771l-0.188,0.376
			l0.188,0.375c-0.319-0.069-0.354,0.146-0.375,0.375l-0.188,0.376l0.188,0.375c-1.062,0.311-0.973-0.53-1.878-0.375l-0.563-0.188
			l-0.188,0.563c-0.332-0.839-2.208-3.568-2.629-1.878l-0.563-0.188l-0.188,0.564c-1.798-4.086-4.798-6.972-8.264-9.391
			c0.803,2.077,2.365,3.395,3.005,5.635l-0.563,0.188l-0.188,0.563c-1.41-1.095-2.662-2.347-3.756-3.756
			c-1.053,0.324-0.799,1.955-1.502,2.629c3.578,3.184,5.91,7.612,12.02,8.263c-0.613,0.89-2.206,0.8-3.005,1.503
			c0.174,1.203,1.43,1.324,1.503,2.629l-0.564-0.188l-0.188,0.563c-2.1-1.531-3.535-3.729-5.634-5.26
			c0.199,0.303,0.392,0.611,0.375,1.127h-0.375v0.376c-2.268-1.488-2.851-4.661-4.883-6.386c-1.589,1.917-2.042,4.97-3.38,7.137
			c1.037,2.469,3.535,3.477,4.883,5.634l-0.563,0.188l-0.188,0.563c-1.97-0.91-3.469-2.291-4.883-3.756
			c-0.61,0.643-1.137,1.367-1.127,2.629c2.38,2.252,6.547,2.718,7.888,6.01l-0.563-0.188l-0.188,0.563
			c-0.304-0.071-0.375-0.376-0.751-0.375c-0.32-0.069-0.354,0.147-0.376,0.375l-0.563-0.188l-0.563,0.188
			c-1.21-2.171-3.954-2.807-5.635-4.507c-2.047,2.96-3.21,6.805-5.258,9.766l-0.188-0.563l-0.563-0.188
			c0.995-3.387,2.311-6.453,3.38-9.766c-1.946-0.86-5.155-1.862-7.513-1.127l-0.188-0.563l-0.563-0.188
			c0.071-0.304,0.377-0.374,0.375-0.751c-0.25,0-0.501,0-0.751,0l0.188-0.563L44.7,143.51c3.08-0.946,6.162,1.346,9.39,1.502
			c0.81-0.316,0.606-1.647,1.127-2.253c-1.524-0.855-4.486-0.272-6.01-1.126l0.188-0.564l-0.188-0.563c2.254,0,4.508,0,6.761,0
			c1.456-2.176,2.143-5.12,3.381-7.513c-2.141-1.377-3.803,0.946-6.386,0.375l0.188-0.563l-0.563-0.188
			c-2.008-0.872-5.631-0.128-8.264-0.375l-0.188-0.563l-0.188-0.563c1.546,0.295,1.927-0.577,3.381-0.376
			c-0.292-0.334-0.404-0.848-0.376-1.502l0.688,0.188l0.438-0.563c2.773,1.734,7.905,1.11,12.021,1.502
			c0.77-0.607,0.947-1.808,1.502-2.629c-1.509-0.87-4.628-0.13-6.761-0.376l0.188-0.563l-0.564-0.187
			c2.007-1.124,5.059-1.203,7.137-2.254c-3.96-0.958-7.797-0.619-11.269,0.376l0.188-0.563l-0.563-0.188
			c-1.005-1.178-3.039-0.691-4.132,0l0.188-0.375l-0.188-0.376c-0.132-0.493-0.661-0.59-0.751-1.126l0.188-0.376l-0.188-0.375
			c0.546-0.166-0.038-0.33,0-0.751h0.375v-0.375c4.56,2.076,12.594,0.678,18.406,1.502c1.063-1.441,1.556-3.451,2.253-5.259
			c-3.512-2.144-7.387-0.14-11.269,0.375l0.188-0.563l-0.564-0.188c0.717-0.535,1.631-0.873,2.63-1.126
			c-0.994-0.797-3.18-0.981-4.508-0.375c0.618-0.749,1.052-1.315,0-1.878l0.563-0.188l-0.188-0.563c0.125,0,0.251,0,0.376,0
			c-1.202-1.178-2.502-2.256-3.756-3.381l0.51-0.457l-0.134-0.67c4.671,3.091,10.301,5.224,17.654,5.634
			c0.468-0.91,0.93-1.825,1.127-3.005c-0.334-0.167-0.672-0.33-0.751-0.751l0.188-0.563l-0.188-0.564c0.625,0,1.252,0,1.878,0
			c0.265-1.738,1.238-2.769,1.502-4.507c-3.415-1.278-5.914-0.278-7.887,1.503l-0.188-0.564l-0.563,0.188
			c-0.273-1.025,0.746-0.756,0.751-1.503c-3.078-0.671-4.29,0.092-6.386,1.127c0.292-0.334,0.403-0.848,0.376-1.502
			c-0.437,0.061-0.668-0.083-0.751-0.375l0.188-0.564l-0.188-0.563c1.125-0.247-0.36-0.803,0-1.502l0.375,0.188l0.376-0.188
			c4.47,0.914,10.013,0.753,15.4,0.75c1.208-3.799,3.317-6.699,4.132-10.893c-1.882-0.873-4.227-1.283-5.635-2.629
			c0.225-2.228-0.659-3.348-0.375-5.634c-4.175,0.082-7.66,0.854-11.645,1.126c-1.226,4.83-3.517,10.443-3.381,15.4l-0.375-0.188
			l-0.375,0.188c-0.304-0.071-0.374-0.376-0.751-0.375l-0.657-0.563l-0.845,0.188c0.055-1.659-0.919,0.035-1.877-0.376
			c1.257-1.378,3.747-3.507,2.629-6.01c-0.247,0.504-0.803,0.7-1.502,0.751L52.4,91.11l-0.563-0.188
			c2.252-1.754,4.591-3.422,4.131-7.888c-1.256,0.621-3.626,0.129-4.882,0.751c0.158,0.785-0.258,0.995-0.376,1.502L50.146,85.1
			l-0.563-0.188c-0.44-0.061-0.317-0.685-0.376-1.127c-0.936,0.316-2.012,0.492-3.38,0.376c-0.884,6.238-1.593,12.192,0.376,17.654
			l-0.689-0.188l-0.438,0.563c-0.823-0.817-1.269-3.973-2.254-3.38l-0.375-0.188l-0.375-0.188c-0.715-0.704-0.943-0.041-1.878,0
			c1.342-0.536,0.829-2.928,1.502-4.132c-0.762-0.859-1.348,1.636-2.253,1.878l-0.188-0.564l-0.188-0.563
			c1.309-3.198,3.897-5.117,3.38-10.142c-2.147-0.27-3.355,0.4-5.258,0.375c-1.574,2.007-1.54,5.052-2.254,7.888
			c-0.831,3.298-2.557,6.413-1.878,9.767l-0.563-0.188l-0.188,0.563c-0.365,0.011-0.291,0.46-0.375,0.751l-0.564-0.188l-0.188,0.563
			c-0.814,0.064-0.17-1.332-0.375-1.877c-0.25,0-0.501,0-0.751,0l0.188-0.376l-0.188-0.375c0.575-0.351,1.479-4.064,0-3.005
			l-0.375-0.188l-0.375,0.188c2.294-3.341,3.739-7.53,4.507-12.396c-1.923,1.958-2.809,4.954-4.507,7.137l-0.188-0.564L28.548,92.8
			c0.556-2.198,1.438-4.071,1.877-6.386c-0.362-0.93-1.442,0.518-2.628,0c-1.305,3.75-3.53,8.708-2.254,12.771l-0.689-0.188
			l-0.438,0.563c-1.452-1.265-1.574,1.208-2.253,1.878l-0.188-0.563l-0.563-0.188c0.157-2.478,2.036-5.218,1.502-7.136l-0.188-0.564
			l-0.563,0.188c0.316-2.688,2.492-3.518,2.629-6.385c-2.539,0.215-4.771,0.737-7.513,0.751c-2.211,1.419-1.608,5.654-3.005,7.888
			l-0.563-0.188l-0.564,0.188c0.243-2.513,0.496-5.013,1.127-7.137c-0.607-0.613-1.571,0.335-3.005,0
			c-0.36,3.021,0.803,7.564-0.751,9.391L10.33,97.12l-0.563,0.188c0-0.125,0-0.25,0-0.376c-0.376,0-0.751,0-1.127,0l-0.188-0.563
			l-0.563-0.188c1.563-1.317,1.231-4.528,1.502-7.137c-2.723-1.088-5.973,0.533-9.391,0l0.188-0.563L0,87.917
			c2.632-0.999,6.375-0.888,9.015-1.878c-0.745-2.386-1.01-5.251-2.629-6.762l0.563-0.438l-0.188-0.688
			c0.437,0.061,0.668-0.083,0.751-0.375l0.563,0.188L8.264,77.4c1.91,1.971,1.668,6.095,3.005,8.639
			c0.882-0.12,1.41-0.593,2.629-0.376c-0.959-2.546-2.063-4.948-3.005-7.512l0.671,0.134l0.456-0.509
			c1.536,2.345,2.673,5.09,4.132,7.512c3.013,0.008,5.117-0.893,8.264-0.751c-0.546-3.21-3.761-3.751-4.508-6.761l0.376,0.188
			l0.375-0.188c0.305,0.071,0.375,0.377,0.752,0.375c-0.944-2.437-2.624-4.138-3.381-6.761l0.563,0.188l0.188-0.563
			c0.772,0.104,0.75,1.003,1.126,1.502c1.025,0.273,0.756-0.746,1.503-0.751l0.438,0.563l0.689-0.188
			c-0.273,5.783,3.258,7.76,4.507,12.021c0.899-0.228,1.714-0.541,3.005-0.376c-0.534-2.47-2.401-3.609-3.005-6.01l0.563,0.188
			l0.188-0.563c1.975,1.406,3.283,3.478,5.258,4.883c-1.44-3.819-3.265-7.253-6.01-9.766l0.563-0.188l-0.188-0.563
			c0.125,0,0.25,0,0.376,0c-0.295-1.584-1.013-2.745-2.254-3.38l0.563-0.188l-0.188-0.564c0.639,0.138,0.709-0.293,0.751-0.751
			l0.563,0.188l0.188-0.563c0.125,0,0.25,0,0.376,0l0.375,0.188l0.375-0.188c1.771,6.366,5.41,10.866,7.887,16.527
			c1.635-0.495,3.857-0.401,5.635-0.751c-0.329-4.679-3.612-6.404-5.635-9.391l0.564-0.188l-0.188-0.564
			c1.319-0.066,1.236,1.269,2.254,1.503c-0.281-1.221-0.68-2.325-1.127-3.38l0.563-0.188l-0.188-0.563c0-0.376,0-0.751,0-1.127
			l0.563,0.188l0.188-0.563c0.365,0.01,0.292,0.459,0.376,0.751c0.993-1.261,0.603-3.905,1.502-5.258l0.438,0.563l0.688-0.188
			c-1.069,8.311,1.535,12.021,3.381,18.03c1.453,0.201,1.834-0.67,3.38-0.375c0-0.501,0-1.002,0-1.502l0.689,0.188l0.438-0.563
			c0.504,0.247,0.699,0.803,0.751,1.502c2.039,0.287,2.911-0.595,4.883-0.375c-0.173-3.958-2.918-5.345-5.634-6.761l0.563-0.188
			l-0.188-0.563c1.062-0.311,0.973,0.53,1.878,0.376c-0.788-1.716-1.478-3.531-3.005-4.508l0.564-0.188l-0.188-0.563
			c0-0.25,0-0.501,0-0.751l0.939,0.188l0.188-0.939c0.304-0.071,0.374-0.377,0.751-0.375l0.188,0.563l0.563-0.188
			c1.761,5,4.566,8.956,6.761,13.522c3.661-0.722,7.847-0.918,11.645-1.503c-0.392-1.861-0.666-3.841-0.751-6.01
			c1.343-1.662,3.631-2.379,4.883-4.132c-2.385-2.875-4.566-5.951-6.761-9.015c-5.057,1.204-10.17,2.351-14.649,4.132l-0.188-0.564
			l-0.563,0.188c0-0.251,0-0.501,0-0.752l1.127-0.751l-1.127-0.751c0-0.25,0-0.501,0-0.751l0.563,0.188l-0.188-0.563
			c1.877,0.546,4.059,0.033,5.259-1.127c-0.303-0.323-1.029-0.223-1.126-0.751l0.563-0.188l-0.188-0.563
			c3.302,1.466,4.854,1.27,8.263,0c-0.489-2.016-1.727-3.282-3.005-4.508c-0.061,0.44-0.685,0.317-1.127,0.375l0.188-0.688
			l-0.563-0.438c1.186-1.46-0.948-2.11-1.127-3.381c-6.001,1.887-11.145,4.631-15.025,8.64l-0.457-0.51l-0.67,0.135
			c0.377-1.501,1.6-2.156,2.254-3.381c-0.01-0.366-0.46-0.292-0.751-0.376l0.188-0.375l-0.188-0.375
			c0.198-0.302,0.392-0.61,0.375-1.127l0.563,0.188l-0.188-0.563c1.325-0.052,1.68-1.075,3.004-1.127
			c-0.694-0.558-1.784-0.72-3.004-0.751l-0.188-0.563l-0.188-0.563c4.919,0.286,9.259-0.006,12.021-1.878
			c-0.973-1.782-2.248-3.262-3.381-4.883c-5.712,2.05-12.767,2.758-17.654,5.634v-0.375h-0.376c-0.209-1.088-0.585,0.577-1.126,0.375
			l-0.063-0.438l-0.313-0.313c0.185-0.988,2.071-1.265,1.126-2.254l0.188-0.375l-0.188-0.375c1.309,0.586,3.572,0.479,4.132-0.751
			l0.563-0.438l-0.188-0.688c4.656,1.177,7.665-1.27,11.644-1.878c-2.258-0.873-6.132-0.128-9.015-0.375l0.188-0.563l-0.564-0.188
			c2.19-1.066,5.391-1.121,7.889-1.878c-0.174-1.203-1.43-1.325-1.503-2.63c-4.146,1.363-9.436,1.583-12.02,4.508l-0.438-0.563
			l-0.689,0.188c0-0.501,0-1.002,0-1.502c-0.5,0-1.001,0-1.501,0l-0.188-0.564l-0.564-0.188c2.101-0.904,4.656-1.354,7.137-1.878
			c0.069-0.319-0.147-0.354-0.375-0.375l0.188-0.564L40.192,32.7c2.05-1.175,4.416,0.213,6.761-0.751
			c-0.743-3.139-3.326-4.438-4.508-7.137c-2.418,0.711-4.654,1.605-7.512,1.878l-0.188-0.563l-0.187-0.563
			c2.144-0.735,4.071-1.688,6.385-2.254c-0.089-1.163-1.045-1.459-1.502-2.254c-3.636,0.747-4.975,3.791-9.391,3.756l0.188-0.563
			l-0.563-0.188c0.941-0.674,1.989-0.302,0.751-1.502l0.563-0.188l-0.188-0.563c3.33,0.2,4.597-1.663,7.137-2.254
			c-1.004-3.378-3.503-5.261-4.883-8.264l0.488-0.488l0.263-0.639c2.077,2.431,4.28,4.736,6.01,7.513
			c2.07-1.436,3.893-3.119,4.883-5.634l0.688,0.188l0.438-0.563c0.366,0.011,0.292,0.46,0.376,0.751
			c0.407-0.093,0.254-0.747,0.751-0.751l0.188,0.563l0.563-0.188c-1.244,3.264-4.208,4.807-6.386,7.137
			c1.734,4.608,3.669-0.766,5.634-2.254l0.263,0.639l0.488,0.488c-1.088,1.792-2.091,3.668-3.381,5.259
			c0.977,0.008,3.538,6.851,4.883,6.761c2.397-0.16,1.08-5.294,3.381-6.761l0.375,0.188l0.376-0.188c0,0.25,0,0.501,0,0.751
			c1.783-1.598,2.349-4.412,4.132-6.01l0.188,0.563l0.563-0.188c0.098,1.099-0.849,1.153-0.75,2.253
			c0.814,0.563,2.114,0.641,3.38,0.751c-5.099,1.662-6.905,6.617-9.766,10.518c0.082,1.42,1.18,1.824,1.502,3.005
			c1.651-1.605,2.252-4.259,3.756-6.01l0.188,0.563l0.563-0.188c-0.223,2.908-1.55,4.711-1.878,7.513
			c2.421-2.962,4.688-6.08,5.634-10.518l0.564,0.188l0.563,0.188c0.947-0.555,1.553-1.453,1.878-2.629l0.563,0.188l0.188-0.564
			c1.253,0.001,1.282-1.222,2.629-1.126l-0.188,0.375l0.188,0.375c-0.231,0.334-0.454,0.672,0,0.751v0.376h0.375
			c-4.831,3.934-7.393,10.136-10.893,15.4c0.77,1.86,1.906,3.353,3.38,4.508c2.767-1.866,3.785-5.48,4.883-9.015l0.563,0.188
			l0.563,0.188c-0.031,0.595,0.181,1.433-0.375,1.502c0.52,0.616,1.735-1.249,2.254-1.878l0.563,0.188l0.188-0.563
			c0.674,0.048,0.792-0.46,1.503-0.376v0.376h0.375c-0.072,0.304-0.377,0.374-0.375,0.751c1.854-0.024,2.653-1.103,4.507-1.127
			l-0.188,0.689l0.563,0.438c-5.985,2.404-9.818,6.96-13.147,12.021c1.021,0.482,1.082,1.923,2.254,2.253
			c0.247-0.504,0.803-0.7,1.502-0.751l-0.188,0.563l0.563,0.188c-2.159,2.022,0.751,4.089,2.254,5.634
			c0.812-2.193,3.264-2.746,2.629-6.386l0.689,0.188l0.438-0.563c1.469-0.911,2.391-2.367,2.63-4.507l0.563,0.188l0.188-0.563
			c0.25,0,0.5,0,0.751,0l0.438,0.563l0.688-0.188c0.011,0.365,0.46,0.292,0.751,0.375l-0.188,0.563l0.563,0.188
			c-3.519,3.493-5.467,8.556-8.639,12.396c2.138,3.497,4.603,6.667,7.137,9.766c1.414-1.465,3.201-2.559,4.883-3.756
			c1.659,0.971,3.352,1.907,5.634,2.253c1.439-3.569,2.995-7.021,4.508-10.518c-4.186-3.201-6.847-7.927-11.645-10.517l0.564-0.188
			l-0.188-0.563c0.437,0.061,0.668-0.083,0.751-0.376l0.488-0.488l0.264-0.639c1.3,1.307,0.852-1.055,1.877-1.126
			c-0.241,3.247,1.806,4.205,3.381,5.634c0.216-0.661-0.454-2.207,0.375-2.253l0.188,0.563l0.564-0.188
			c0.292,3.715,1.741,6.272,4.883,7.137c0.288-2.166,2.614-4.106,0.375-5.635l0.563-0.187l0.188-0.564c0.501,0,1.002,0,1.503,0
			c0.052-1.325,1.075-1.68,1.126-3.005c-4.592-3.17-8.474-7.052-15.024-8.264l0.563-0.438l-0.188-0.689
			c1.142-0.235,3.235,0.481,3.756-0.375l0.563,0.188l0.188-0.563c0.504-0.247,0.699-0.803,0.75-1.502
			c0.575,1.428,1.717,2.29,3.005,3.004c0.909-0.341-0.852-1.108-0.376-2.253l0.564,0.188l0.188-0.563
			c2.168,2.965,3.575,6.692,7.137,8.263c1.323-1.181,1.353-3.655,2.629-4.883c-4.555-4.334-8.134-9.646-13.897-12.771l0.188-0.376
			l-0.188-0.375c0.319,0.069,0.354-0.146,0.375-0.375l0.188-0.376l-0.188-0.375c1.062-0.311,0.973,0.53,1.878,0.375l0.563,0.188
			l0.188-0.563c0.574,0.82,1.553,3.184,2.63,2.254l0.563,0.188l0.188-0.563c1.83,4.055,5.032,6.737,8.264,9.391
			c-1.106-2.525-2.878-4.385-3.756-7.137L98.602,25l0.188-0.563c1.841,1.288,2.96,3.3,4.507,4.883
			c0.746-0.632,0.599-2.155,1.503-2.629c-3.543-3.343-5.775-7.997-12.02-8.639c0.637-0.74,1.747-1.008,3.004-1.127
			c0.077-1.579-1.427-1.578-1.502-3.005l0.563,0.188l0.188-0.563c2.304,1.451,3.361,4.151,5.634,5.634c0-0.25,0-0.5,0-0.751
			l0.376,0.188l0.376-0.188c1.995,1.135,2.088,4.172,4.132,5.258c1.466-2.04,2.26-4.751,3.381-7.137
			c-0.788-2.217-3.034-2.977-4.132-4.883l0.638-0.263l0.488-0.488c1.317,0.937,2.564,1.943,3.756,3.005
			c0.742-0.26,1.001-1.002,1.127-1.878c-1.537-3.096-6.338-2.928-7.513-6.386l0.564,0.188l0.188-0.563
			c0.866,0.746,0.417-0.094,1.127-0.375l0.563,0.188l0.188-0.563c0.789,2.842,4.131,3.132,5.635,5.259
			c2.293-2.589,3.172-6.594,5.259-9.391l0.188,0.563L117.57,1.147z M84.891,74.77c2.36-1.146,4.359-2.652,6.01-4.507
			c-2.446-0.685-4.085-2.176-6.762-2.63C84.224,70.179,84.669,72.363,84.891,74.77z M73.998,72.517
			c2.489,0.892,4.778,1.983,7.137,3.005c-0.929-2.077,0.114-6.124-1.502-7.512C77.897,69.654,75.641,70.779,73.998,72.517z
			M87.521,78.526c2.549,0.581,4.336,1.924,6.761,2.629c-0.292-2.588-0.21-5.549-1.126-7.512
			C91.583,75.577,88.828,76.328,87.521,78.526z M73.623,83.785c1.486-2.019,4.231-2.78,5.635-4.883
			c-2.425-0.705-4.212-2.048-6.762-2.629C72.659,78.99,72.766,81.762,73.623,83.785z M86.394,89.044
			c1.81-0.26,4.745-2.468,6.01-4.507c-2.456-0.675-4.307-1.955-6.762-2.629C86.062,84.117,86.375,86.433,86.394,89.044z
			M75.876,87.166c2.455,0.675,4.306,1.955,6.761,2.629c-0.047-2.833-0.312-5.448-1.127-7.513
			C80.024,84.302,77.279,85.063,75.876,87.166z"/>
		<g id="smallFlake">
			<use xlink:href="#snowflake" transform="scale(.4)" />
		</g>
		<g id="smallerFlake">
			<use xlink:href="#snowflake" transform="scale(.3)" />
		</g>
    </defs>
    <g>
        <desc>Tiled spiral background</desc>
        <rect width="100%" height="100%" fill="#333333" opacity="0.50"/>
        <rect x="0px" y="0px" height="100%" width="100%" opacity="0.2" fill="url(#tile)" />
    	<rect id="nightBG" width="100%" height="100%" fill="#000033" opacity="0"/>
    </g>
	<rect id="grass" x="0px" y="575px" width="100%" height="300px" fill="#00bb33" stroke="none" />
    <g id="controller">
    	<desc>Weather controller</desc>
    	<rect x="1050px" y="200px" width="20px" height="200px" fill="#CCC" stroke="black" stroke-width="2px" />
		<rect class="home" x="650px" y="400px" width="450px" height="250px" rx="10px" />
    	<a xlink:href="#" onclick="sun();" onmouseover="displayMe(this, 'show');" onmouseout="displayMe(this, 'hide');" class="link">
    		<use xlink:href="#sun" transform='translate(685,510) scale(.6)' />
    		<text x="725" y="630" class="description" display="none">Sun</text>
    	</a>
    	<a xlink:href="#" onclick="rain();" onmouseover="displayMe(this, 'show');" onmouseout="displayMe(this, 'hide');" class="link">
    		<use xlink:href="#drop" transform='translate(805,600) rotate(-90)' class="rain" />
    		<text x="805" y="630" class="description" display="none">Rain</text>
    	</a>
    	<a xlink:href="#" onclick="moon();" onmouseover="displayMe(this, 'show');" onmouseout="displayMe(this, 'hide');" class="link">
    		<use xlink:href="#moon" transform='translate(865,510) scale(.75)' />
    		<text x="885" y="630" class="description" display="none">Moon</text>
    	</a>
    	<a xlink:href="#" onclick="snow();" onmouseover="displayMe(this, 'show');" onmouseout="displayMe(this, 'hide');" class="link">
    		<use xlink:href="#snowflake" transform="translate(950,510) scale(.6)" stroke="#FFFFFF"/>
    		<text x="980" y="630" class="description" display="none">Snow</text>
    	</a>
    	<rect x="690px" y="420px" width="370px" height="40px" fill="#222" stroke="#F00" stroke-width="1px" />
    	<text id="currentWeather" x="700px" y="445px">Current Weather:</text>
    	<text id="calmText" x="810px" y="445px" fill="#FFF">Calm</text>
    	<text id="sunnyText" x="845px" y="445px" fill="#FFF">Sunny</text>
    	<text id="rainingText" x="885px" y="445px" fill="#FFF">Raining</text>
    	<text id="moonlightText" x="933px" y="445px" fill="#FFF">Moonlight</text>
    	<text id="snowingText" x="998px" y="445px" fill="#FFF">Snowing</text>
    	<a xlink:href="#" onclick="revert();" style="cursor: pointer;">
    		<rect x="985px" y="472px" width="55px" height="25px" fill="#DDD" stroke="#000" /> 
    		<text id="resetText" x="990px" y="490px" fill="#F00" font-size="16px">RESET</text>
    	</a>
    </g>
	<g id="weather">
		<g id="mySun">
			
		</g>
		<g id="myRain">
			
		</g>
		<g id="myMoon">
			
		</g>
		<g id="mySnow">
			
		</g>
	</g>
</svg> 