<svg viewBox="0 0 102 100" xmlns="http://www.w3.org/2000/svg" fill-rule="evenodd" clip-rule="evenodd" stroke-linejoin="round" stroke-miterlimit="1.414"><path d="M50.9 0C22.791 0 0 22.791 0 50.906c0 22.491 14.584 41.569 34.813 48.303 2.546.466 3.475-1.106 3.475-2.456 0-1.206-.044-4.409-.069-8.656-14.16 3.075-17.147-6.825-17.147-6.825-2.316-5.878-5.653-7.444-5.653-7.444-4.622-3.159.35-3.097.35-3.097 5.109.363 7.797 5.247 7.797 5.247 4.54 7.778 11.915 5.531 14.815 4.231.463-3.29 1.775-5.534 3.232-6.806-11.304-1.284-23.188-5.653-23.188-25.159 0-5.556 1.984-10.1 5.241-13.66-.525-1.287-2.272-6.462.497-13.471 0 0 4.275-1.369 14 5.218 4.059-1.128 8.415-1.693 12.743-1.712 4.322.019 8.678.584 12.744 1.712 9.719-6.587 13.984-5.218 13.984-5.218 2.778 7.009 1.032 12.184.507 13.471 3.262 3.56 5.234 8.104 5.234 13.66 0 19.556-11.903 23.859-23.244 25.119 1.828 1.571 3.457 4.678 3.457 9.428 0 6.803-.063 12.293-.063 13.962 0 1.363.916 2.947 3.5 2.45 20.212-6.747 34.784-25.812 34.784-48.297C101.809 22.791 79.016 0 50.9 0" fill="#181717"/></svg>