<?xml version="1.0" standalone="no"?>
<!DOCTYPE svg PUBLIC "-//W3C//DTD SVG 20010904//EN"
 "http://www.w3.org/TR/2001/REC-SVG-20010904/DTD/svg10.dtd">
<svg version="1.0" xmlns="http://www.w3.org/2000/svg"
 width="700.000000pt" height="700.000000pt" viewBox="0 0 700.000000 700.000000"
 preserveAspectRatio="xMidYMid meet">
<metadata>
Created by potrace 1.11, written by Peter Selinger 2001-2013
</metadata>
<g transform="translate(0.000000,700.000000) scale(0.100000,-0.100000)"
fill="#000000" stroke="none">
<path d="M3885 6517 c-28 -23 -59 -51 -70 -62 -11 -11 -49 -44 -85 -74 -36
-30 -69 -59 -75 -65 -5 -6 -41 -38 -80 -71 -38 -33 -72 -62 -75 -65 -3 -3 -61
-55 -130 -115 -69 -60 -130 -114 -136 -119 -6 -6 -24 -22 -40 -35 -60 -50
-169 -145 -179 -155 -5 -6 -39 -36 -75 -66 -36 -30 -69 -60 -75 -66 -5 -5 -44
-39 -85 -75 -41 -35 -77 -66 -80 -69 -3 -3 -39 -34 -80 -70 -41 -36 -77 -67
-80 -70 -3 -3 -77 -68 -165 -144 -88 -77 -167 -147 -176 -155 -9 -9 -27 -25
-40 -35 -32 -27 -263 -228 -269 -235 -3 -3 -54 -49 -115 -101 -97 -84 -152
-132 -189 -165 -6 -5 -45 -39 -86 -75 -41 -35 -82 -71 -91 -80 -8 -8 -40 -35
-69 -60 -29 -25 -59 -50 -65 -57 -7 -7 -50 -44 -96 -84 -46 -39 -86 -75 -89
-78 -3 -3 -36 -33 -75 -66 -38 -33 -80 -69 -93 -81 -13 -11 -126 -110 -252
-220 -126 -109 -229 -201 -230 -204 0 -3 28 -37 61 -75 34 -39 71 -81 83 -95
66 -78 201 -236 206 -240 3 -3 55 -63 115 -135 60 -71 112 -132 115 -135 3 -3
59 -68 125 -145 66 -77 122 -142 125 -145 3 -3 55 -63 115 -135 60 -71 112
-132 115 -135 3 -3 45 -52 94 -110 49 -58 105 -123 125 -145 20 -22 86 -98
146 -170 60 -71 112 -132 115 -135 3 -3 30 -34 60 -70 30 -35 60 -70 65 -76 6
-6 31 -35 56 -65 26 -30 108 -126 184 -214 75 -88 156 -182 180 -210 23 -27
117 -138 210 -245 92 -107 188 -220 213 -250 26 -30 63 -72 82 -93 l36 -39
369 444 c203 243 459 551 568 683 110 132 207 249 216 260 764 916 1021 1228
1017 1232 -3 3 -395 6 -871 6 l-866 0 6 38 c5 37 9 74 20 157 12 97 16 130 20
162 3 19 7 54 10 78 3 23 7 59 10 81 3 21 8 57 10 81 2 24 7 59 10 79 2 20 7
56 10 81 3 25 8 65 11 90 3 25 7 56 9 70 2 14 7 50 10 80 3 30 8 66 10 80 2
14 7 50 10 80 4 30 8 66 10 80 9 65 15 108 20 145 4 34 65 526 80 650 3 22 10
69 15 105 6 36 33 250 60 475 28 226 53 426 55 445 18 132 53 435 52 437 -2 1
-25 -17 -52 -40z"/>
</g>
</svg>
