<svg viewBox="0 0 36 36" xmlns="http://www.w3.org/2000/svg" fill-rule="evenodd" clip-rule="evenodd" stroke-linejoin="round" stroke-miterlimit="1.414"><g fill-rule="nonzero"><path d="M33.335 0H2.655C1.19 0 0 1.163 0 2.596v30.807C0 34.836 1.19 36 2.655 36h30.68c1.468 0 2.664-1.164 2.664-2.597V2.596C35.999 1.163 34.803 0 33.335 0z" fill="#007bb6"/><path d="M8.007 4.957a3.097 3.097 0 1 1-.004 6.194 3.097 3.097 0 0 1 .004-6.194zm-2.674 8.54h5.345v17.179H5.333V13.497zM14.028 13.497h5.118v2.348h.073c.712-1.35 2.454-2.775 5.052-2.775 5.406 0 6.405 3.557 6.405 8.184v9.422h-5.339v-8.354c0-1.992-.034-4.555-2.774-4.555-2.778 0-3.202 2.171-3.202 4.412v8.497h-5.333V13.497z" fill="#fff"/></g></svg>