<?xml version="1.0" encoding="utf-8"?>
<!-- Generator: Adobe Illustrator 15.1.0, SVG Export Plug-In . SVG Version: 6.00 Build 0)  -->
<!DOCTYPE svg PUBLIC "-//W3C//DTD SVG 1.1//EN" "http://www.w3.org/Graphics/SVG/1.1/DTD/svg11.dtd">
<svg version="1.1" id="svg2" xmlns="http://www.w3.org/2000/svg" xmlns:xlink="http://www.w3.org/1999/xlink" x="0px" y="0px"
	 width="415.672px" height="384.744px" viewBox="0 0 415.672 384.744" enable-background="new 0 0 415.672 384.744"
	 xml:space="preserve">
<g id="NT">
	<path id="NT-state" fill="#2C2C2C" d="M163.333,43.609v127.674h91.039V59.467l-1.146-1.528l-3.248-1.003l-4.251-2.914l-0.955,0.334
		l0.334,0.668l-1.623-0.668l-1.004,0.334v-1.337l-3.582-1.624l-1.289-2.58l-5.207-3.248l-0.334,0.334v-0.668l-0.955,0.334
		l-1.624-1.624l-0.669-2.293l1.958-0.668l1.624-3.869l1.959-1.003l0.334-1.958l1.624-3.582l-1.338,1.003l-0.62-0.334l-0.335-2.914
		l0.669,0.287l0.621-0.621l-0.955-0.334l0.334-0.955l0.955-0.668l0.334,0.955l0.956-1.911l0.334,1.624l0.335-1.624l0.955,0.287
		l0.334-0.955l0.669,1.624l-0.669,0.955l1.29-0.621l1.003-1.958l-1.003-1.003l1.958,0.334l-1.958-2.245l0.668,0.287l0.335-0.621
		l0.668,0.955l-0.334-1.29h0.955l0.669-1.624l-0.334-1.003h0.669v1.003l1.958-2.292l-1.958-1.958l-1.004,0.668l0.669,0.621h-1.003
		l-1.29-2.914h-0.668l1.003-1.29l-3.917,2.914l2.293,0.668l-1.003,1.958l-0.955,0.621l-1.29-0.287l-0.669,0.621v-0.956h-0.669
		l1.003-1.624l-1.003,0.287l-0.286-0.621l1.289-1.624l-2.627,1.29l-0.334,1.003l-0.955-0.669l2.627-2.914l-3.582,1.911l-0.335-0.621
		l-1.624,0.334l-1.624,0.956l1.29,0.668l-1.959-0.334l0.669,0.956l-3.916-1.624l-1.003-2.245l-1.29,1.624l-3.917-1.003l-0.955,1.958
		l0.669-1.624l-0.669-1.29l-0.669,0.334l-0.334-1.003l-1.29,1.003l-0.955-1.003l0.955-0.955l-1.289-0.334l-2.914,1.624l0.287-1.29
		l-0.621,0.621l-0.669-0.955l-0.955,0.621l0.286-0.956l-1.91,0.334l-2.293-3.917h-0.669l0.335,1.003l-0.669-0.334l-1.624,1.29
		l-2.245-3.248l-0.669,0.956l-0.334-1.958l-0.955,0.669l0.334,0.955l-1.672-1.624l0.335,1.958l0.669,0.334l-0.669,1.003
		l-0.621-2.293l-1.338-1.003v1.337l-1.624-0.334l0.335,0.621l-0.621,0.668l1.624-0.334l0.286,0.668l-0.286,0.334l1.289,0.334
		l0.335,0.955l1.29-0.668l2.913-0.287v0.621h0.669l-0.669,0.334l1.003,0.334h-0.669l0.669,0.334l-0.669,0.287h1.624h0.335
		l-1.624,1.624l1.289,1.003l-0.621,0.334l-0.334,1.958l1.624,0.621l-2.245-0.621l-1.003,0.621l-0.334,1.958l-0.621-1.624
		l-1.003,0.668l-0.334-1.003l-1.625,1.624l-1.623-0.956l-4.538,0.621l-1.29-0.955l-0.334-1.624l-0.669,1.958l-2.579-0.668
		l0.621,2.292l-1.624-0.334l-0.621,0.668l1.624,1.29l-1.337-0.334l0.62,1.003l-0.62,0.621l-0.621-1.29v0.334l-0.669,0.334
		l0.334-1.672l-1.958-0.287l0.334,2.245h-0.668l1.958,1.003h-0.955v0.621l-1.624-1.624l-1.003,0.334l0.334,0.668l-0.669-0.668v2.292
		l-2.245,0.621v2.292l1.911,2.292l-0.621-0.334l-2.627,1.958l-0.955-0.334v-0.621l-1.003,0.621l-0.287,2.914l0.621-0.287
		l-1.289,0.955l0.334,1.624l-1.003,0.669l-0.621-0.669l0.621,1.624l-0.621-0.621l-0.669,1.29l-0.334-1.003l-1.29,2.293v1.003
		l0.955,0.955l0.669-0.668v1.003l1.29-0.334l0.334,0.669l1.29-0.669l-0.287,0.669l-1.624,0.955h0.956v0.669h-0.335l0.239,0.43
		l0.238,0.096l0.813-0.525l-0.287,0.955l2.245-1.29v0.956h-1.29l0.669,0.668l-1.003-0.334h-0.621h-1.337l0.669,1.29l-0.669-0.621
		l0.334,2.292l-0.955,0.287l-1.003-2.245l-0.955-0.334l0.334,1.624l-1.338-1.958l0.335,0.669h-0.621h-0.334l0.62,0.955l-0.62,0.669
		l0.955,0.334h-0.955l-0.335,1.29v-1.003l-0.668,1.337l0.668-1.624l-0.334-0.334l-0.669-0.669v-1.29l-0.621,0.955v-1.29H163.333z"/>
</g>
<g id="QLD">
	<path id="QLD-state" fill="#2C2C2C" d="M302.375,0l-1.289,0.334l-1.003,1.958l-1.911,0.621l0.287,1.624l-0.955,4.251h-0.335
		l-0.334,2.293h1.003l-1.29,0.287l-0.334,1.958l0.621,1.003l0.669-0.668l-0.669,1.003l-0.621-0.334l-0.334,1.29l-0.335-2.293
		l-1.624,2.627l0.956,0.334h-0.956l-1.289,3.248h0.955l-0.334-1.29l1.003,0.287l-0.669,0.334l1.29,1.003h1.671l-1.671,0.621
		l1.671,0.668l-0.668,0.334l0.334,1.624l-1.337-2.293l-0.621,1.624l-1.624,1.29l0.955,2.961l-0.334,0.956l0.668-0.334l-0.334,0.334
		l0.669,0.334h-1.29l-1.672,4.872l1.672,3.583l-1.003,3.248l1.29,5.875l-1.959,5.206l-0.955,3.917l0.669,1.624l-2.293,6.496
		l-2.627,3.248l-0.621,4.25l-2.961,2.293l-5.493,1.29l-0.669-0.334l-1.958-1.29l-2.293-0.334l-1.29-1.625l-2.292-1.002l-0.621-2.914
		l-1.29-1.289l-4.251-1.29l-5.206-0.669l-2.771-3.678v111.816h31.716v25.889l81.199,0.096l1.338-0.717l-0.096-0.813l1.099-0.095
		l0.144-1.72l1.672,0.144l1.193-1.815l0.86-0.048l2.006,0.621l1.958,0.334l2.197-0.764l1.386-0.144l0.334,0.813l1.099-0.096
		l1.146,0.43l0.907,0.478l2.483,0.048l1.72,0.382l1.003,1.29l0.621,0.764l0.669,1.051l0.096,1.099l0.716,1.624l1.051-0.668
		l0.479-0.86l1.003-1.242l1.003-1.193l0.621,1.051l1.193,0.43l1.577-0.717l0.19-0.859l1.003-1.194l-1.099,0.096l-0.43-1.624
		l0.144-1.146l1.385-0.144l1.672-0.143l1.003-0.956l1.338-0.955l1.433,0.43l1.242,1.242l1.576-0.717l1.433,0.431l0.86-0.096
		l0.764-0.335l0.813-0.62l1.385,0.143l1.48-0.048l0.048-0.668l-1.289-1.29l-0.908-3.917l-0.716-2.913l-0.956-1.338l-1.003,0.669
		l0.669-1.003l-1.337-0.621l1.003-1.003l-1.003-0.955l1.337-0.669l-1.003-0.955v-1.003l1.624,1.958l-0.955-2.914l-0.335,0.956
		l0.669-2.58l-0.669-0.43l0.335-2.817h-0.669l1.337-5.207h-0.668l-0.669-1.337l-0.621,1.958l0.287-1.624h-0.956l0.669-0.621
		l-1.337-1.003v-1.958l1.003-0.955l-1.959,0.62l1.624-0.62l-0.334-1.624l-3.582-1.004l1.003-0.62l-1.958-2.293l0.334-1.29
		l-1.003-0.668l-0.335,0.668l0.335-1.003l-1.959-0.955v0.334l-1.624-1.624l-1.624-4.251l-1.289-0.334l0.334-1.29l-0.669,0.956
		v-0.956l-0.955-0.334l0.621,1.29l-1.289-0.621v0.621l-1.29-0.621v0.621l-4.251-5.827l-0.955,1.289l-1.338-1.958l0.669-0.335
		l-0.955-1.958l0.62-0.621l-0.955-3.582h0.621l0.334-2.627l-0.62-1.624v1.003l-0.669-0.334l-0.669-1.29l1.003,0.334l0.335-0.334
		l-1.003-1.624V125l-0.335-1.29l-0.621-0.334l-0.334,0.955l0.955,1.624l-0.621-0.287l0.621,1.624l-4.537-3.296l-1.624-2.579
		l-0.335,0.669l-0.955,1.624l0.955,2.245l0.669,1.337l-0.669-0.668l-1.958-2.293l-1.958,2.293l1.003-2.293h-1.338l0.669-0.335
		l-0.334-0.62l-1.29,0.334l1.29-0.669l-1.959-4.537l0.669-3.583l-0.334,0.621l-1.29-1.289l-0.334,0.668v-2.961l-1.29,0.669
		l0.334-1.003h-0.334l0.621-1.624l-1.29-1.29l-0.955,0.669l0.287-1.29h-2.245l-0.335-1.003l0.669-0.334l-1.624-0.956l0.287-0.668
		l-0.956-0.956l0.956-0.334l-0.621-0.669l0.955,0.335l0.334-0.669l1.624,1.337l-1.958-3.247l-0.621,0.286v-0.955h-1.003l-0.334-1.29
		h-0.955h-0.335v1.29l-0.955-0.335l-1.338-1.289l0.335-0.335v-0.334l-1.624-0.955l-1.959,0.334l-0.62-2.293h-1.004l0.669,1.624
		l-1.337-0.334l-1.911-1.958l1.29,0.668l-1.959-4.251v1.338l-2.913,0.286l-1.337-2.913l-0.287,1.289h-1.003l-0.955-1.289
		l-3.296-1.29l-1.911-2.292l0.621-3.583h-1.289l-2.293-3.916l1.624-5.541h-0.621v-2.58l-1.958-3.582l0.62-1.623l-1.623,0.334
		l-3.869-5.207v-1.623h0.621v-2.293l-1.29-1.624l-0.334-3.583l-1.29-1.29l1.624-1.958v-0.334l-1.003,0.334l-0.287-1.624l1.29-1.624
		h-0.669l-0.621-1.337l-1.958-0.287l-1.337-1.958l-2.245-0.669l-1.624-4.251l-1.959,1.624l-1.289-0.621l-0.669,1.958l-1.958,0.955
		l-1.624-1.29l-0.955-4.251l-1.672-2.579l0.669-3.248l-0.956-3.248l0.287-2.961l-1.911,0.669l0.955-2.961l-1.958-1.29v-1.29
		l-1.624-0.334l-0.334-2.293l1.958-1.624l-1.624-0.621l-1.289,0.334l-1.004-1.003V7.165l-1.289-3.917h-0.955l-0.669-1.29v0.621
		l-1.29,0.669l1.624-2.627l-0.334-0.287L302.375,0z"/>
</g>
<g id="NSW">
	<path id="NSW-state" fill="#E4950C" d="M403.97,190.007l-1.338,0.955l-1.003,0.956l-1.672,0.143l-1.385,0.144l-0.144,1.146
		l0.43,1.624l1.099-0.096l-1.003,1.194l-0.19,0.859l-1.577,0.717l-1.193-0.43l-0.621-1.051l-1.003,1.193l-1.003,1.242l-0.479,0.86
		l-1.051,0.668l-0.716-1.624l-0.096-1.099l-0.669-1.051l-0.621-0.764l-1.003-1.29l-1.72-0.382l-2.483-0.048l-0.907-0.478
		l-1.146-0.43l-1.099,0.096l-0.334-0.813l-1.386,0.144l-2.197,0.764l-1.958-0.334l-2.006-0.621l-0.86,0.048l-1.193,1.815
		l-1.672-0.144l-0.144,1.72l-1.099,0.095l0.096,0.813l-1.338,0.717l-81.199-0.096v68.876v0.048l0.096,0.334l1.72-0.286l2.817,1.337
		l1.576-1.098l2.675,0.43l3.248,0.382l2.627,2.197l0.765,3.104l1.672,1.48l0.048-1.48l1.624-0.812l1.48,0.334l2.627,0.191
		l1.528,0.621l0.955,4.203l2.197,3.152l1.72,0.048l2.484,1.051l3.009,2.723l0.573,1.958l1.958,1.433l2.483,1.051l2.007-0.286
		l-0.382-2.245l0.764-1.003l1.099-0.144l1.29,0.669l2.817-0.43l2.197,1.099l1.386-0.191l1.862,0.859l1.815,0.335l1.003-1.051
		l1.337-0.478l1.624,0.907l2.962,0.717l2.245-0.621l1.624-0.525l1.146-0.191l1.098-0.43l1.386-0.525l2.149,1.146l-0.287,1.768
		l0.86,1.862l1.099,1.576l0.525,1.672l-0.239,2.054l12.515,6.21l2.627,0.19l1.099,1.003h1.003l-0.239,0.669l0.191,0.144l1.672-0.813
		l-0.335-2.627l0.669-0.334h0.669l-0.669-1.624l-1.289-0.335l0.62-1.289l-0.62-1.624l0.62,0.334l0.669-2.292l1.29-5.207
		l-0.334-3.248l0.668-1.958h-0.668l1.623-1.29l-0.955-1.289l1.29,0.286l2.627-6.161l2.245-0.669l-0.955-1.958l0.955-0.287v1.29
		l0.668-0.335l-0.668-1.958l-0.621,0.335l0.334-0.669l-1.337-0.287l2.292-1.003l0.669-2.293l-0.669-0.955l1.004-0.334v-2.293
		l2.579-2.579l-0.955-0.334l1.624-0.335l-1.959-0.621l2.245-0.334l0.334-1.624l-0.955,0.621l-0.669-0.621l1.004,0.334l-0.335-1.003
		l0.955,0.669l0.335-2.627v-0.334l-0.669,0.668v-0.955l-0.286,0.287l-0.335-0.956l0.955,0.669l0.335-1.624v1.29l1.289-0.669
		l0.335-1.624l-0.621-0.621h1.29l0.955-2.627l-0.955,1.29l-0.335-1.29h0.955v-1.29l0.335,1.29l1.337-2.293l-0.334-0.62h0.621v0.955
		l3.916-2.293l-1.289-0.286l-1.29,0.955l-0.334-0.335l0.621-0.62l-0.287-0.669l1.29,0.669l0.955-0.669l0.334,0.669l1.29-1.959
		l2.293-1.337l0.334-2.58l-1.003-0.334v0.669l-1.29-0.669h1.29h0.334l0.335-2.293l2.292-1.91l2.914-9.457l-0.334-6.496l2.292-5.875
		l0.335-1.003l0.955-5.493l-0.955-0.669l0.955,0.335l-0.287-1.29l2.58-4.92h-0.669l0.669-0.286l0.334-2.627l-1.003-1.29l0.286-2.914
		l-1.48,0.048l-1.385-0.143l-0.813,0.62l-0.764,0.335l-0.86,0.096l-1.433-0.431l-1.576,0.717l-1.242-1.242L403.97,190.007z
		 M365.233,275.983c0.699-0.028,1.442,0.08,2.102,0.382c0.565,0.259,0.753,0.642,0.717,1.051s-0.342,0.841-0.669,1.338
		c-0.651,0.992-1.531,2.095-1.48,3.057c-0.117,0.527-0.668,1.67-1.433,1.814c-0.383,0.073-0.839-0.104-1.29-0.716
		c-0.45-0.612-0.928-1.654-1.385-3.344c-0.279-1.031,0.048-1.907,0.716-2.531S364.185,276.024,365.233,275.983z"/>
</g>
<g id="ACT">
	<path id="ACT-state" fill="#2C2C2C" d="M365.249,275.974c0.699-0.028,1.418,0.087,2.077,0.39c0.565,0.26,0.749,0.629,0.715,1.038
		c-0.036,0.409-0.324,0.866-0.649,1.363c-0.652,0.993-1.543,2.089-1.493,3.051c-0.117,0.528-0.664,1.672-1.428,1.817
		c-0.383,0.072-0.848-0.103-1.299-0.715c-0.45-0.611-0.905-1.685-1.363-3.375c-0.278-1.031,0.047-1.907,0.715-2.53
		C363.19,276.389,364.201,276.016,365.249,275.974z"/>
</g>
<g id="VIC">
	<path id="VIC-state" fill="#2C2C2C" d="M376.267,303.353l-0.956-0.956h0.287l-1.099-1.003l-2.627-0.19l-12.515-6.21l0.239-2.054
		l-0.525-1.672l-1.099-1.576l-0.86-1.862l0.287-1.768l-2.149-1.146l-1.386,0.525l-1.098,0.43l-1.146,0.191l-1.624,0.525
		l-2.245,0.621l-2.962-0.717l-1.624-0.907l-1.337,0.478l-1.003,1.051l-1.815-0.335l-1.862-0.859l-1.386,0.191l-2.197-1.099
		l-2.817,0.43l-1.29-0.669l-1.099,0.144l-0.764,1.003l0.382,2.245l-2.007,0.286l-2.483-1.051l-1.958-1.433l-0.573-1.958
		l-3.009-2.723l-2.484-1.051l-1.72-0.048l-2.197-3.152l-0.955-4.203l-1.528-0.621l-2.627-0.191l-1.48-0.334l-1.624,0.812
		l-0.048,1.48l-1.672-1.48l-0.765-3.104l-2.627-2.197l-3.248-0.382l-2.675-0.43l-1.576,1.098l-2.817-1.337l-1.72,0.286l-0.096-0.334
		v43.418l0.669,0.048l3.582,2.913v1.625l1.003-0.335l0.955,0.669l1.959-2.293l3.916,1.959l2.58-0.669l12.036,6.544l4.92-4.872
		l3.869-2.628h2.292l0.669-1.958l-2.292,0.669l-1.29-1.003h1.624l4.203-3.248l1.958,3.917l-1.958,2.579l-2.914-0.621l2.914,2.579
		l1.958-1.289l1.003,0.334l0.287-2.627h2.293l0.668,1.958l-1.289,0.335l-0.335,1.958l2.245,1.624l2.293-0.335l0.334,0.669
		l-0.955-0.334l1.624,2.913l1.29-0.955l1.289,0.669l-0.334-1.003l1.337,2.627l1.624,1.624l0.621-4.251l-1.958,1.289l-0.621-2.579
		h3.248l3.869-1.289l6.209-6.544l4.251-2.579l-5.206,2.244l2.913-1.91l-0.095-0.144l-0.86-0.859l2.245,0.669l2.627-1.004
		l-0.334,0.669l14.329-1.289L376.267,303.353z"/>
</g>
<g id="TAS">
	<path id="TAS-state" fill="#2C2C2C" d="M354.8,374.98l-0.649,1.953l1.301,0.324l-0.651,0.652l0.978,1.301l0.978-0.325v-1.303
		l1.301,1.628l-0.653-2.93l-1.625,0.325L354.8,374.98z M361.31,356.75l-0.649-1.951l0.975-2.605l-0.975-0.975l0.975-2.606
		l-2.603-3.254l-1.63-0.325l-0.647,1.953l-1.955-0.977l-2.278,2.603l-1.627-0.977l-1.628,1.304l-1.302-0.65l-2.277,0.975
		l1.626,1.629l-0.327,0.65l-1.952-2.279l-1.624,1.303l0.321,1.304l-0.648-1.63l-2.93,0.652l-7.486-4.559h-1.954l-0.653-1.626v1.302
		l-1.299-0.325v0.649l-4.558-2.277l0.327,2.603l-0.979,1.953l1.301,5.535l2.28,3.255l-0.652,0.65l3.257,4.232v2.928l0.976-0.977
		l1.628,2.931h0.649l-0.649,2.278l-0.326-1.951l-2.93-2.606l0.975,5.86l0.979,0.325l1.629,4.883l1.627,0.65l1.627,3.582h0.979
		l-0.654-0.326l0.654-1.304l0.65,1.954h2.604l-0.326,0.652l-2.277-0.652v0.976l-0.65-0.323l0.975,2.604l2.279-0.979l3.578,0.653
		l-0.321-0.978l1.299,2.278h1.952l1.304-1.954l-0.979-0.977l1.306,0.328l0.325-1.303l-0.979-0.326l1.304-0.65l-1.304-1.627
		l0.326-0.652v0.976l0.652,0.652l0.325-0.976v0.976l1.3,0.651l0.327-3.581l0.978,0.325v-1.951l-1.631-2.605l2.279,2.931l0.651-0.325
		l-0.651,1.951l1.304-0.977l-0.327-1.626l0.979-0.326l-1.629-0.977l1.629,0.324l0.649,1.63l1.302-0.326l1.629-2.93l-0.976-1.628
		l1.301-0.651l0.323-2.603l-0.977,0.324l1.63-3.255h0.976l-0.976-0.325l1.301-1.953l-0.649,1.953l1.626,0.649v1.955l0.652-0.979
		l-0.977-2.277L361.31,356.75z"/>
</g>
<g id="SA">
	<path id="SA-state" fill="#2C2C2C" d="M286.087,309.514v-43.418v-0.048v-68.876v-25.889h-31.716l0,0h-91.039v59.563l0.717-0.382
		l10.078-1.003l1.624-0.335l6.544,0.669l3.582-1.958l6.162,3.247l4.585,3.583h2.914l-0.335-0.621l0.669-0.334h2.245l3.917,3.247
		h3.916l-1.003-0.955l0.669-0.334l0.668,0.621l0.621-0.955l3.583,3.582l-0.956,0.334v1.624l1.959-1.003l1.289,0.334l1.29,2.628
		l-0.955,1.289l0.334-1.003h-1.624l0.621,1.338l-0.621,0.955l1.29,0.334l-0.669,0.955l1.958,1.959l-0.62-1.959l0.955,1.959
		l0.955-0.621l1.958,1.289l-0.955-0.955l1.624,0.287l-0.669,0.668l1.959,2.627v1.911l3.582,3.296l1.958,8.788l0.335-1.003
		l0.334,1.003l0.621,0.287l-1.29,0.334l-0.668-1.289l0.334-0.335l-1.29-0.334v-0.621l-1.003,1.958l1.338-0.668l3.916,4.872
		l1.624-0.956l1.624,1.959l0.621-3.583l-2.245,0.956l0.956-0.669l0.334-2.579l1.289-0.669l0.669,0.669v-2.293l4.872-5.541
		l3.917-1.958l-1.003,0.334l0.668-1.289l0.669,0.668l2.245-0.668l2.293-6.496l1.958-2.293l1.29,0.669v-6.544l1.624,3.582
		l0.334,2.962l0.955,0.955l-2.579,2.293l1.958,3.582l-3.916,3.917l-0.956,2.913l-0.668,0.335l0.668,1.958l-1.003,1.911l0.669-0.287
		l0.334,1.91l-0.668,3.917l-0.669,0.669l-3.869-1.003l-1.672,4.92l3.296-0.335l2.579-1.958l2.293,0.955l1.29-0.621l-0.669-0.669
		l1.624-3.582l0.334-3.248l1.959-4.537l4.585,7.881l0.286,0.573l-0.62,0.334l-0.335-1.003l-0.334,7.165l-3.582,3.248l4.585,0.334
		l1.911-1.624l1.671,0.334l4.872,3.869l-4.872-3.534l4.204,3.248l2.77,3.582l-2.102-3.248l1.624,1.29l1.959,4.251l-0.86-1.338
		l2.484,6.544l-0.335,1.624l-1.624,1.624l1.29,1.958l-0.621,0.956l2.579,3.582l3.773,5.063l0.144,0.479l1.958,1.624L286.087,309.514
		z"/>
</g>
<g id="WA">
	<path id="WA-state" fill="#2C2C2C" d="M163.333,230.846v-59.563l0,0V43.609h-1.91l-0.621-0.668l-1.29-0.287l-1.958,0.287
		l1.29,1.003l0.334,1.29l-1.29-1.624l0.956,1.624l-0.335-0.334l-0.334,0.669l-0.621-0.669l-0.334,1.337l-0.669-1.671l-0.621,1.003
		l1.624,4.538h-0.669l-0.334-1.624l-1.624-1.624v2.627l-0.955,0.956l0.62-1.29l-0.62-1.003l0.62-0.287l-0.334-1.958l1.003-2.293
		h-0.669l1.338-0.334l-0.669-0.955l0.669-0.334l-2.293-1.624l-0.334,0.669l-2.914-4.585l-2.292-1.29l-0.335-1.29l-0.955-0.334
		l0.334,0.955l-1.003-0.955l-0.669,0.621v-0.621l-0.62,0.621l-0.669-1.624l-1.958-0.621v0.621l-1.29-0.286l0.669,1.624l1.289,0.621
		l-0.573-0.048l-1.719-0.287l0.334,1.003l-0.669,0.668l-0.286-0.668l-0.335,1.958l-1.003-1.958l-0.621,0.334l0.621-1.624
		l-1.958,1.29l-0.286,0.668l0.62,0.621l-1.289,0.668l-0.335-1.624h-0.621l0.621-0.668h-0.621l0.621-0.669l-0.955,0.669l-1.003-0.334
		v0.669l-0.286-0.669v0.669l1.91,0.955l-1.29,1.003l0.335,0.956l-0.955,0.668l0.62,1.29h-1.289v1.624l-1.003-0.955l0.334-1.29
		l-1.289,0.287v-0.956l-0.956,2.58l0.287-2.914l0.669-0.956l-1.29-0.668v3.582l-1.003-0.334l-0.621,1.29l-0.334-0.956l-0.669,0.669
		l0.334-1.337l-1.29,1.337l0.621,0.287l-1.958,1.003l1.003,1.29h0.955l-1.289,1.003l1.958,0.621l0.335-0.621l0.62,0.287
		l-1.289,1.337l1.624,0.621h-1.624l-0.621-0.955l-1.338,0.955l-0.955-2.245l-0.669,0.287l0.335,1.337l-1.958,0.287l0.668,0.334
		l-0.334,1.003l1.958-1.337l-1.958,1.672l0.669,0.621l1.624-0.956v0.621h0.62l-0.955,1.003l1.958,1.624l-1.623-1.29l-0.669,0.621
		l-0.669-1.29l-1.289-0.334v-0.669l-0.956,0.669l-0.669,1.29l-0.334-0.621l-0.334,0.956l-1.29-0.334l0.335,0.334l-1.29,1.003
		l0.621,0.287l-0.955,0.334l1.289,3.582l0.335-0.573v0.238l0.668-0.955l-0.573,0.525l0.86-1.528l1.003-0.621l-0.669,0.621h1.003
		l-1.337,1.003l-0.287,2.292h0.621l-1.289,0.621l0.668,0.334l-0.668,0.335l-0.669-1.624l-0.621,2.914l2.245-0.335l1.289,0.669
		l-2.913,0.334l-0.621-0.668l-0.669,0.668l0.573,0.334l-1.528,0.287l0.955-0.287l-0.955-0.334l-1.003-1.289l-2.245-1.004
		l0.955,1.004h-0.668l0.668,0.955l-1.289-0.955v0.286l-1.624-0.621h0.621l-0.335-0.669h0.669l-1.29-0.668v0.668l-1.003-0.334
		l0.335,0.669l-0.621-0.669l0.621,1.003l-0.621,0.335l1.289,0.286l0.335,0.669l-1.003-0.334l1.003,0.668h-0.669h-0.334h-1.29
		l1.624,0.955h-2.245l0.621,1.004l0.334-0.669l0.956,0.334l-1.29,0.956l2.293,0.668l0.621,1.959l1.337-0.67v-0.62l0.621,0.286
		l-1.624,1.625l0.669,0.668l-1.003-0.334l1.671,2.961l-2.961-2.961l-0.955,0.334l1.289,2.293l-0.668-0.334l-0.621,1.623V71.6
		l-1.959-1.959l-1.003-3.248l-1.289-0.955v-2.627h-0.956l-1.003-0.955l0.335-1.338l1.003-0.287l-0.669-1.002l-1.003,0.334
		l-1.911,3.248l0.956,1.003l-2.627-0.335l-0.287,0.955l0.621,1.291l-1.29-0.621v0.621l-1.289,0.334l-1.003,1.337l0.669,0.286
		l-1.625,1.338l-0.334,2.914l0.955,2.292l-0.621,2.245l2.293,0.335v1.289l-4.585,3.296l-1.29,0.286l-1.003,1.338l0.669,0.955
		l-1.624,0.335l0.334,1.289l-1.624,2.962l-3.916,4.872l-9.123,3.916l-2.293,0.287h-2.245l-1.003,0.668l-1.29,0.956l-0.955-0.956
		l-2.961-0.668l0.334,0.668v0.335l-0.334-0.335l-0.621-0.334l-0.335,0.334l-2.292,2.914l-6.831,1.338v-0.669l-2.579,1.624
		l0.287,0.668h-0.955l-0.669,1.29l-1.624,0.334v-0.334l-2.579,1.29l-1.959-0.956l-0.334-1.003l-2.293,1.338l-0.955-0.335
		l-0.669-0.334l1.003-1.624h-0.668l-1.624,1.958l0.334,0.335h-0.669l-3.248,1.624l-1.003-0.669l-0.286,1.624l-2.627,1.29
		l-0.955,1.958l-1.625,0.334l-1.623,2.627l-6.21,1.624l-2.579,1.624l-0.335,1.959l-0.668,0.286l-0.669-0.286l0.335,1.289
		l-0.956,1.624l0.621,0.669l-0.621-0.334l0.335,0.62l-1.338,1.624l-0.621-0.955l-1.623,0.955l0.62-2.244l-0.62,0.62l-0.335-2.244
		l1.29-3.917l-2.293,0.669l-3.248,7.785l1.624,4.251l-0.621,1.959l0.335,3.868l-3.297,4.586l-0.621,5.827l2.58,4.251L6.809,151.7
		l0.668,2.579l1.29,1.003l3.582,7.165l1.003,0.286l0.334,1.624h-1.002l0.334,3.582l-1.624,1.959l-1.624-2.579l-0.334-3.583v1.624
		l-1.625,1.29l0.335-3.582l-2.627-4.204l-0.956,2.58l0.621,0.668v-1.337l1.004,4.92l3.248,2.579l-0.335,2.961l-1.958,0.955
		l-0.334-2.292l-0.287,1.958l-0.669-3.917l-0.334,1.959l-1.29-5.207l0.334,4.252l-1.002-0.669v-3.583l-0.287,2.628l-1.338-1.004
		l8.455,12.371l1.958,5.207l-0.62,1.624l0.62,3.295l3.583,4.204l1.002,1.958l-0.334,1.289l2.914,3.917l1.337,4.586l-0.334,5.827
		v0.668l0.955,5.207l6.496,13.66l0.334,4.872l1.624-0.955v0.621l-1.624,0.334l0.335,1.624l-0.669,1.003l0.334,2.293l-1.289,2.579
		l0.955,7.499l-3.534,4.203h-1.672l-1.911-1.289v6.83l1.29,3.582l0.334-0.621l1.911-0.334l3.582,1.958l2.961,4.538l3.917,1.29
		l0.287-0.956l1.337,0.956h-1.624l2.579,1.623l1.003-0.955l1.911,0.955l4.585-0.62l2.579,1.624l0.669-1.338l2.914,1.003l0.669-0.334
		l-1.624-0.669l0.668-1.289l0.621-0.335l-0.334,1.338h2.627l-0.335-1.003l2.293-0.335l0.335-1.958l2.913-1.29l0.334-1.289
		l1.625-0.669l-0.669-0.621l4.251,1.29l0.334-1.29l1.29,0.334v-1.337l1.624,0.334l-1.29-1.289l4.538-4.251h0.955l4.251,0.668
		l1.624-1.289l8.168-1.003l4.203,1.289l2.293-0.955l1.289,2.293h1.624l0.669-1.338l2.245,0.669l0.334-0.955l4.251-0.335l0.955,0.621
		l0.335,1.338l2.292-1.624l1.624,0.621l4.538-4.538l1.337-5.206l1.29-1.338l5.875-1.91l11.702-6.878l2.579-0.621l4.92,0.621
		l5.493-0.287l10.46-3.248L163.333,230.846z M122.685,59.563l-1.624,0.668l-0.573-0.621l0.573,0.287L122.685,59.563z M2.604,164.702
		L0,158.844v3.255l2.604,4.231V164.702z"/>
</g>
</svg>
