<?xml version="1.0" encoding="utf-8"?>
<!DOCTYPE svg PUBLIC "-//W3C//DTD SVG 1.1//EN" "http://www.w3.org/Graphics/SVG/1.1/DTD/svg11.dtd">
<svg version="1.1" 
     id="Layer_1" 
     xmlns="http://www.w3.org/2000/svg" 
     xmlns:xlink="http://www.w3.org/1999/xlink" 
     width="375"
     height="375"
     viewBox="0 0 375 375"
     enable-background="new 0 0 375 375"
     xml:space="preserve">
    <rect x="54.996" y="54.996" transform="matrix(0.7071 -0.7071 0.7071 0.7071 -77.7758 187.7674)" width="265.541" height="265.542"/>
    <g>
        <rect x="211.053" y="119.482" transform="matrix(-0.7071 0.7071 -0.7071 -0.7071 499.0942 77.2251)" fill="#03AAC8" width="44.999" height="44.999"/>
        <g>
            <polygon fill="#FFFFFF" points="247.518,187.767 187.768,247.518 180.874,240.623 149.054,272.443 187.768,311.156 311.156,187.767 272.443,149.053 240.623,180.873"/>
            <polygon fill="#FFFFFF" points="64.377,187.768 112.284,235.674 141.982,265.373 226.48,180.873 194.662,149.053 141.982,201.732 128.017,187.768 187.768,128.017 194.662,134.911 226.48,103.091 187.768,64.377"/>
        </g>
    </g>
</svg>
