<?xml version="1.0" encoding="utf-8"?>
<!-- Generator: Adobe Illustrator 15.1.0, SVG Export Plug-In . SVG Version: 6.00 Build 0)  -->
<!DOCTYPE svg PUBLIC "-//W3C//DTD SVG 1.1//EN" "http://www.w3.org/Graphics/SVG/1.1/DTD/svg11.dtd">
<svg version="1.1" id="Layer_1" xmlns="http://www.w3.org/2000/svg" xmlns:xlink="http://www.w3.org/1999/xlink" x="0px" y="0px"
	 width="100px" height="43.688px" viewBox="0 28.156 100 43.688" enable-background="new 0 28.156 100 43.688" xml:space="preserve"
	>
<path fill="#E4950C" d="M2.343,54.1C0.938,53.162,0,51.289,0,49.648c0-1.64,0.703-3.162,2.46-3.982H2.343
	c8.317-4.92,19.915-11.48,27.647-16.049v10.895c-3.046,1.757-7.146,3.749-17.455,9.255l0.117,0.116
	c5.506,2.461,11.832,6.209,17.338,9.489v11.012L2.343,54.1z"/>
<path fill="#E4950C" d="M97.657,45.9c1.403,0.938,2.343,2.812,2.343,4.452s-0.703,3.162-2.461,3.982h0.118
	c-8.317,4.92-19.916,11.48-27.647,16.049V59.488c3.047-1.756,7.146-3.748,17.455-9.254l-0.117-0.116
	c-5.505-2.461-11.832-6.209-17.338-9.489V29.617L97.657,45.9z"/>
<path fill="#E4950C" d="M46.401,71.844H39.39l14.09-43.688h7.129L46.401,71.844z"/>
</svg>
