<?xml version="1.0" encoding="utf-8"?>
<!-- Generator: Adobe Illustrator 15.1.0, SVG Export Plug-In . SVG Version: 6.00 Build 0)  -->
<!DOCTYPE svg PUBLIC "-//W3C//DTD SVG 1.1//EN" "http://www.w3.org/Graphics/SVG/1.1/DTD/svg11.dtd">
<svg version="1.1" xmlns="http://www.w3.org/2000/svg" xmlns:xlink="http://www.w3.org/1999/xlink" x="0px" y="0px"
    width="163.035px" height="162.957px" viewBox="0 0 163.035 162.957" enable-background="new 0 0 163.035 162.957"
    xml:space="preserve">
    <g id="ring-skils">
        <g>
            <path fill="#2C2C2C" d="M138.569,81.439c0,2.634-0.193,5.221-0.539,7.759l24.292,2.873c0.454-3.482,0.713-7.025,0.713-10.632 c0-43.987-34.847-79.817-78.438-81.439v24.474C114.674,26.074,138.569,50.965,138.569,81.439z"/>
            <path fill="#8A8A8A" d="M29.026,59.088c3.653-8.567,9.338-16.056,16.456-21.863L31.194,17.328 c-11.01,8.648-19.736,20.066-25.127,33.209L29.026,59.088z"/>
            <path fill="#B2B1B2" d="M78.437,0C62.829,0.582,48.355,5.565,36.188,13.721l14.265,19.864c8.133-5.289,17.695-8.564,27.983-9.112 V0z"/>
            <path fill="#727373" d="M24.466,81.439c0-5.762,0.857-11.322,2.445-16.564L3.966,56.329C1.404,64.241,0,72.674,0,81.439 c0,6.322,0.743,12.467,2.105,18.375l23.94-5.052C25.022,90.487,24.466,86.029,24.466,81.439z"/>
            <path fill="#424242" d="M136.873,95.265c-5.558,22.323-24.26,39.438-47.416,42.664l1.865,24.421 c34.844-4.181,62.93-30.319,69.99-64.194L136.873,95.265z"/>
            <path fill="#555655" d="M83.319,138.445c-0.6,0.019-1.197,0.046-1.802,0.046c-24.752,0-45.815-15.767-53.714-37.802l-24.106,5.086 c10.351,33.134,41.276,57.182,77.82,57.182c1.229,0,2.45-0.039,3.666-0.093L83.319,138.445z"/>
        </g>
        <g>
            <path fill="#E29725" d="M81.638,105.929c6.33,0,15.844-2.797,15.844-19.293c0-3.65-0.089-9.242-0.646-14.662 c-0.016-0.145-9.808-0.998-15.389-0.998h0.376c-5.581,0-15.373,0.854-15.388,0.998c-0.559,5.42-0.646,11.012-0.646,14.662 c0,16.496,9.512,19.293,15.844,19.293"/>
            <path fill="#E29725" d="M65.555,86.636c0,16.496,9.514,19.293,15.844,19.293"/>
            <path fill="#E29725" d="M79.268,66.606v-6.292c0-0.804,0.692-1.478,1.643-1.712l0.001-1.498c-3.909-0.091-9.606,0.02-11.816,4.008 c-1.213,2.194-2.014,5.616-2.545,9.402c4.078-0.543,8.976-0.846,14.354-0.814l0.001-1.383 C79.957,68.082,79.268,67.409,79.268,66.606z"/>
            <path fill="#E29725" d="M94.145,61.054c-2.21-3.988-7.908-4.1-11.816-4.008l0.001,1.549c0.966,0.229,1.673,0.907,1.673,1.72v6.292 c0,0.812-0.704,1.489-1.668,1.719l0.001,1.315c5.379-0.027,10.277,0.272,14.354,0.815C96.157,66.669,95.358,63.247,94.145,61.054z"/>
        </g>
        <g>
            <path fill="#E29725" d="M80.915,57.1c0.123-1.769,0.571-3.368,1.275-4.911c0.723-1.518,1.753-2.905,3.062-3.965
                c1.312-1.064,2.858-1.768,4.446-2.225c1.592-0.455,3.272-0.636,4.931-0.482c3.304,0.282,6.563,1.978,8.423,4.812
                c0.932,1.399,1.482,3.055,1.572,4.735c0.082,1.695-0.244,3.313-0.635,4.897c-0.779,3.157-2.161,6.147-2.437,9.257
                c-0.129,1.538,0.205,3.086,1.168,4.259c0.951,1.162,2.31,2.071,3.757,2.491c1.464,0.422,3.054,0.31,4.497-0.219
                c1.446-0.522,2.765-1.411,3.843-2.519c1.076-1.105,1.932-2.448,2.35-3.903c0.423-1.445,0.311-3.031-0.522-4.233l0.832-0.555
                c1.013,1.492,1.102,3.433,0.603,5.051c-0.494,1.643-1.446,3.084-2.623,4.27c-1.18,1.186-2.609,2.13-4.2,2.687
                c-1.586,0.555-3.358,0.682-5.003,0.212c-1.641-0.486-3.087-1.449-4.176-2.771c-1.109-1.342-1.492-3.172-1.344-4.826
                c0.126-1.675,0.595-3.254,1.068-4.798c0.481-1.545,0.997-3.064,1.391-4.604c0.382-1.531,0.689-3.118,0.61-4.648
                c-0.083-1.538-0.584-3.045-1.438-4.328c-1.701-2.596-4.72-4.183-7.812-4.446c-1.551-0.144-3.128,0.025-4.631,0.455
                c-1.504,0.422-2.945,1.098-4.112,2.107c-2.382,1.963-3.563,5.216-3.456,8.177L80.915,57.1z"/>
        </g>
    </g>
</svg>
