<?xml version="1.0" encoding="utf-8"?>
<!-- Generator: Adobe Illustrator 15.1.0, SVG Export Plug-In . SVG Version: 6.00 Build 0)  -->
<!DOCTYPE svg PUBLIC "-//W3C//DTD SVG 1.1//EN" "http://www.w3.org/Graphics/SVG/1.1/DTD/svg11.dtd">
<svg version="1.1" id="Layer_1" xmlns="http://www.w3.org/2000/svg" xmlns:xlink="http://www.w3.org/1999/xlink" x="0px" y="0px"
	 width="184px" height="183.927px" viewBox="0 0 184 183.927" enable-background="new 0 0 184 183.927" xml:space="preserve">
<g>
	<path fill="#2C2C2C" d="M27.644,157.662l18.411-18.014c-12.516-12.054-20.316-28.972-20.316-47.721
		c0-35.421,27.793-64.348,62.761-66.168V0C39.312,1.841,0,42.29,0,91.927C0,117.683,10.588,140.961,27.644,157.662z"/>
	<path fill="#4C4C4D" d="M154.396,69.591l25.229-5.756C168.088,27.827,134.978,1.477,95.5,0v25.759
		C122.73,27.176,145.603,45.033,154.396,69.591z"/>
	<path fill="#727373" d="M156.402,76.313c1.21,5.008,1.859,10.234,1.859,15.614c0,9.063-1.824,17.698-5.118,25.566l23.404,10.753
		c4.793-11.143,7.452-23.42,7.452-36.319c0-7.348-0.868-14.491-2.495-21.341L156.402,76.313z"/>
	<path fill="#8A8A8A" d="M150.099,123.798c-11.268,20.496-33.058,34.391-58.099,34.391c-15.319,0-29.412-5.213-40.635-13.941
		l-18.529,18.128C48.832,175.823,69.468,183.927,92,183.927c35.42,0,66.16-20.021,81.535-49.359L150.099,123.798z"/>
</g>
<path fill="#E29725" d="M138.562,82.029c0-5.333-2.85-10.279-7.52-13.193C128.564,58.699,119,51.473,107.798,51.473
	c-2.694,0-5.325,0.418-7.846,1.246c-3.125-2.951-7.332-4.61-11.823-4.61c-5.188,0-10.109,2.315-13.257,6.145
	c-0.698-0.083-1.4-0.125-2.1-0.125c-7.604,0-14.109,4.734-16.121,11.486c-6.684,2.188-11.214,8.108-11.214,14.925
	c0,2.021,0.416,4.037,1.213,5.907c-0.796,1.871-1.213,3.887-1.213,5.906c0,5.863,3.365,11.158,8.814,13.926
	c3.128,2.945,7.415,4.625,11.841,4.625c2.827,0,5.538-0.648,7.97-1.897c3.156,3.456,7.816,5.521,12.716,5.521
	c3.055,0,5.969-0.757,8.542-2.205c2.851,2.088,6.253,3.434,9.841,3.873c6.047,6.068,10.688,13.907,10.733,13.989l1.524,2.597
	l7.658-5.489l-4.263-12.22c2.401-1.111,4.388-2.931,5.646-5.211c5.231-2.775,8.563-8.09,8.563-13.795
	c0-1.279-0.161-2.541-0.479-3.769C137.117,89.451,138.562,85.797,138.562,82.029z M123.271,105.304l-0.954,0.436l-0.422,0.961
	c-0.885,2.014-2.801,3.484-5.122,3.938l-3.115,0.606l4.063,11.649c-2.222-3.209-5.548-7.592-9.415-11.321l-0.717-0.688l-0.989-0.073
	c-2.365-0.175-4.634-0.886-6.625-2.027l7.918-6.258c2.062-1.632,4.841-2.342,5.776-2.091l3.629,0.966l1.363-5.137l-3.629-0.964
	c-3.191-0.851-7.759,0.942-10.435,3.058l-8.892,7.024l-0.021-0.021l-1.822,1.355c-2.026,1.51-4.352,2.309-6.962,2.309
	c-3.727,0-7.172-1.734-9.172-4.551v-2.924v-1.223V96.51c0-2.132,0.992-4.168,1.577-4.521l2.969-1.834l-2.88-4.705l-3.045,1.832
	c-1.425,0.861-2.527,2.385-3.262,4.093c-0.618-0.57-1.285-1.078-1.982-1.501l-8.907-5.399l-2.853,4.703l8.78,5.399
	c2.133,1.293,3.603,4.104,3.603,5.752v1.223v2.316c-2,1.002-3.648,1.535-5.762,1.535c-3.142,0-6.104-1.223-8.232-3.35l-0.305-0.336
	l-0.414-0.203c-3.76-1.783-6.088-5.296-6.088-9.164c0-1.609,0.401-3.153,1.184-4.591l0.718-1.316l-0.716-1.315
	c-0.782-1.435-1.179-2.979-1.179-4.59c0-4.781,3.54-8.902,8.607-10.021l1.8-0.398l0.316-1.816c0.875-5.028,5.548-8.677,11.113-8.677
	c0.907,0,1.819,0.102,2.71,0.304l1.885,0.426l1.04-1.629c2.015-3.158,5.741-5.12,9.723-5.12c2.58,0,5.006,0.797,6.97,2.228
	l-2.045,1.908l-0.035-0.038l-1.433,1.336c-1.929,1.476-4.292,2.251-5.193,2.115l-3.899-0.587l-0.817,5.439l3.896,0.586
	c0.13,0.02,0.269,0.018,0.402,0.029c-0.629,1.965-0.855,4.06-0.537,5.913l0.897,5.226l5.421-0.932l-0.897-5.225
	c-0.338-1.969,0.657-4.978,2.092-6.313l2.254-2.104c0.31-0.245,0.604-0.493,0.873-0.743l4.315-4.027
	c2.345-0.956,4.834-1.447,7.401-1.447c9.01,0,16.623,5.942,18.106,14.129l0.24,1.328l1.196,0.622c3.526,1.834,5.72,5.274,5.72,8.978
	c0,1.94-0.591,3.786-1.677,5.392l-0.854-0.854h0.001l-3.563-3.563c-1.549-1.548-3.133-4.974-3.394-7.33l-0.588-5.353l-5.278,0.58
	l0.588,5.353c0.168,1.535,0.688,3.273,1.398,4.947c-0.354-0.043-0.705-0.09-1.044-0.106l-11.944-0.567l-0.254,5.306l11.953,0.566
	c2.446,0.116,6.026,1.574,7.514,3.059l2.834,2.835l0.103,0.255c0.446,1.125,0.673,2.31,0.673,3.517
	C129.523,100.005,127.126,103.545,123.271,105.304z"/>
</svg>
