<?xml version="1.0" encoding="utf-8"?>
<!-- Generator: Adobe Illustrator 15.1.0, SVG Export Plug-In . SVG Version: 6.00 Build 0)  -->
<!DOCTYPE svg PUBLIC "-//W3C//DTD SVG 1.1//EN" "http://www.w3.org/Graphics/SVG/1.1/DTD/svg11.dtd">
<svg version="1.1" xmlns="http://www.w3.org/2000/svg" xmlns:xlink="http://www.w3.org/1999/xlink" x="0px" y="0px"
	 width="966.791px" height="594.423px" viewBox="0 0 966.791 594.423" enable-background="new 0 0 966.791 594.423"
	 xml:space="preserve">
<g id="outer_line_of_US">
	<path fill="#2C2C2C" d="M48.074,5.102c0,0-0.384,3.591-1.375,4.582c-0.991,0.99-0.985,6.947,0.006,7.739
		c0.991,0.792,2.232,7.733,0.325,10.903c0,0,1.513,4.758,0.002,8.325c-1.511,3.566,0.001,0.793,0.001,0.793s0.074,2.181,1.065,1.982
		c0,0-1.188-1.783,0-2.179c0,0,2.18,2.007,3.566,2.192c0,0-2.18,2.167-3.765,1.771c0,0-2.328,3.17,0.917,3.963
		c3.244,0.792,1.857,1.981,1.857,1.981s-0.544-0.99-1.857,0c-1.313,0.991-1.907,4.558-0.917,5.35c0,0-2.08-1.585-1.932-3.17
		c0,0-1.437,3.566-1.437,5.548c0,1.981-2.972,21.001-9.51,34.276c-6.538,13.275-14.178,33.18-20.804,40.22
		c-1.783,0.991,0,8.718,0,8.718s-1.188,9.312-0.792,12.878s-1.387,5.151-1.387,5.151s1.189,7.529-1.387,11.293
		c-2.576,3.765-1.189,10.699-5.746,12.285c-4.557,1.585-5.547,8.717-4.557,10.302c0.991,1.585,6.934,9.708,5.944,14.265
		c-0.991,4.558-2.972,9.114-2.576,13.671c0.396,4.557-1.188,3.764-1.585,4.359c0,0,10.303,18.624,9.114,21.2
		c-1.189,2.576-2.576,3.566-2.576,3.566s1.585-0.792,3.368,1.189c1.783,1.981,4.557,5.547,5.35,4.755
		c0.792-0.793-0.198-2.378,0.396-3.963c0.595-1.585,0.793-3.765,5.152,0s7.727,1.387,7.727,1.387s-1.584,2.774-7.925,0.396
		s-2.18,2.179-1.585,4.359c0.594,2.179,1.585,9.114,1.585,9.114s-4.881-4.242-4.161-8.717c0,0-1.981-4.557-2.972,2.179
		c-0.99,6.736,1.783,6.736-0.99,9.708c-2.774,2.972,7.331,8.718,7.331,8.718s3.764,3.566-2.972,8.717
		c-6.736,5.152,6.858,20.407,6.858,20.407s6.417,8.718,5.822,11.096c-0.594,2.377,2.179,3.962,2.576,6.538
		c0.396,2.575-4.359,11.293-2.179,14.067c2.179,2.773,17.633,6.538,20.605,10.104c2.972,3.566-0.198,3.963,2.773,6.736
		c2.972,2.773,11.888,4.16,11.888,4.16c1.783,1.189-0.198,6.34,1.189,7.728c1.387,1.387,1.584-1.585,3.764,0
		s15.256,10.897,12.482,27.144c0,0-1.783,6.142,7.727,6.34c9.51,0.198,40.221,4.359,40.221,4.359s-1.783,2.773-1.387,3.963
		c0.396,1.188,67.364,39.626,67.364,39.626l56.269,7.132c0,0,0.198-9.51,1.783-9.51c1.584,0,31.106,0.396,34.672,4.755
		s8.52,9.511,12.68,13.076c4.161,3.566,14.662,15.059,16.048,19.219c1.387,4.161,1.783,14.86,4.755,18.229
		c2.972,3.368,12.68,10.698,17.039,12.878s7.925,8.718,12.482,2.576c4.557-6.143,4.16-12.284,9.114-13.671
		c4.953-1.388,15.058-1.388,21.992,0.792c6.935,2.18,12.086,7.727,14.463,11.096c2.378,3.368,7.529,16.246,8.52,18.821
		c0.99,2.576,3.368,7.133,5.547,9.114c2.18,1.982,2.774,6.935,10.303,12.681s1.585,9.51,2.377,12.086
		c0.793,2.576,5.746,12.878,6.935,14.661c1.189,1.783,6.34,0.595,8.52,4.756c2.179,4.16,3.17,3.17,3.17,3.17
		s0.792-1.974,4.953,0.104c4.161,2.076,8.52-0.104,13.076,2.472c4.557,2.576,3.567,3.963,8.124,1.586
		c4.557-2.378,2.576-1.981,2.576-1.981s-3.962,1.585-3.17-0.991c0.792-2.575,0.991-2.575-0.396-4.358
		c-1.387-1.783-2.18-9.511-2.774-11.294c-0.595-1.783-3.566-2.377-2.18-3.962c1.387-1.585,1.981-1.981,2.576-3.765
		s-0.198-4.161-0.198-4.161s-4.557,1.387-5.547-0.792c-0.991-2.18-1.753-3.809,1.387-1.388c3.14,2.422,3.963,1.388,4.557,0.991
		s2.972-8.123,2.972-8.123s-1.189-3.963-3.17-4.358c0,0,1.981-2.181,4.557,0.197c0,0,4.557-3.17,4.359-5.151
		s-1.189,0.595-1.981,0.793s-3.005-1.783-1.817-2.378c1.188-0.594,1.137-1.188,3.137-1.188s0,1.09,0,1.09s5.012-0.298,3.823-5.053
		c-1.189-4.755,1.291-0.991,3.174-0.198s6.491-0.99,5.896-1.981c-0.594-0.99-5.423-5.349-4.432-6.142s3.146,2.972,4.675,2.378
		c1.529-0.595-2.489-1.585,0.031-1.783c2.52-0.198,4.715,0.99,7.291,1.386c2.576,0.397,2.386-2.377,4.763-2.773
		c2.378-0.396,12.288-5.349,13.278-7.528c0.991-2.18,2.778-4.755,4.958-6.736c2.179-1.981-2.378-3.765-2.378-5.944
		s1.585-3.963,3.963-3.368c2.377,0.595,2.972,2.576,1.783,3.566c-1.189,0.99,2.179,1.585,4.358,0.595c0,0-5.35,2.972-4.358,3.566
		c0.989,0.594,9.113-6.341,13.076-6.935c3.963-0.595,14.463-2.972,14.463-2.972s-2.179-2.576,0-5.746
		c2.18-3.17,1.982,2.773,1.783,4.16c0,0,2.378,0.991,8.52,3.566c6.142,2.576,15.454,2.18,16.841,1.387
		c1.388-0.792-2.972-2.377-2.179-3.566c0.792-1.188,3.565-2.575,5.151-1.981c1.585,0.595,1.584,2.181,4.755,2.774
		c3.17,0.595,2.18,3.963,6.34,3.566s3.765,2.773,5.548,4.161c1.783,1.387,4.755,5.745,7.925,4.16c3.171-1.585,0-4.755,3.368-4.755
		c3.369,0,6.341,2.378,7.728,3.17c1.387,0.793,4.953-3.764,2.972-5.349c-1.98-1.586-4.755-4.954,2.378-2.181
		c7.132,2.774,2.377,3.963,5.943,4.954c3.566,0.99,3.963,2.378,5.151,3.962c1.189,1.585,6.142,0.198,6.341-1.98
		c0.198-2.18-0.793-4.953-3.369-4.558c-2.574,0.396-6.735-1.585-7.925-2.773c-1.188-1.188-1.188-2.18-0.396-3.566
		c0.792-1.387-0.793-4.755,1.386-4.358c2.181,0.396,3.566-0.793,1.982-3.17c-1.585-2.378-0.991-0.793-4.359,0.197
		c-3.368,0.991-6.142-1.585-3.17-2.972s-1.981-1.981-5.548-0.396s-11.095,1.585-4.953-4.358c6.142-5.944,9.51,2.773,13.076,2.575
		c3.566-0.197,3.766-2.179,6.935-3.765c3.17-1.585,7.925-3.565,13.077-2.575c5.151,0.99,9.51-0.99,9.51-1.585
		s-0.595-8.52,2.576-7.331c3.17,1.188,0.197,5.746,2.575,6.736c2.378,0.991,2.575,3.765,0,3.963c0,0,3.963,0.99,5.35-1.388
		c1.387-2.377,3.566-2.575,3.566-4.557s1.388,1.783,0,3.566c-1.387,1.783,5.943-2.773,5.151-5.745
		c-0.793-2.973,2.973-1.783,3.368,0.197c0.396,1.981-1.782,3.566-1.782,3.566s9.311-2.179,11.293-2.972
		c1.981-0.792,3.566-2.575,6.142-0.99s3.171,2.377,6.737,3.368s1.98,0,4.556,0c2.576,0,6.538,2.575,3.963,2.972
		c-2.575,0.397,1.387,2.18,2.575,3.566c1.189,1.387,0,3.765,2.773,3.963c2.775,0.198,5.746-0.991,8.916-2.18
		c3.171-1.188,3.766-4.358,7.331-3.764c3.567,0.594-4.358-4.161,4.359-4.558s14.265,5.943,16.048,7.133
		c1.783,1.188,5.35,6.34,8.124,7.727c2.773,1.388,4.557,0.793,7.133,2.774c2.575,1.98,3.765,5.746,4.359,8.321
		c0.594,2.575,0.594,10.303,0,14.265c-0.595,3.963-1.685,7.728,0.445,8.322c2.13,0.594,5.696-0.991,4.31-2.18
		c-1.388-1.188-5.747-5.151,3.169,0s-3.962,8.52-3.962,8.52s7.727,12.284,10.897,12.878c3.169,0.595,2.575-4.755,4.358-1.783
		s0.396,5.746,0.793,7.728c0.396,1.981,1.98-1.585,3.566-1.189c1.584,0.396,0.197,3.368,0,4.359c-0.199,0.99,3.17,7.331,4.755,9.114
		c1.585,1.782,7.133-0.793,11.491,6.142c4.359,6.935,7.133,5.548,8.52,6.736c1.388,1.188-2.774,3.566-4.755,2.576
		c-1.981-0.99-2.021,5.547,5.032,2.179c7.054-3.368,10.224-1.188,11.61-5.547c1.387-4.359-0.99-12.879,1.981-16.842
		c2.972-3.962-1.783-19.218-2.378-19.813c-0.594-0.595-18.029-28.134-19.614-32.295s-3.765-9.906-6.143-15.256
		c-2.377-5.35-10.302-14.86-10.896-17.832s-9.313-16.643-7.926-21.596c1.388-4.954-1.188-15.256,1.586-18.229
		c2.773-2.972,4.755-8.718,5.35-10.104c0.594-1.387,1.981-5.35,2.377-6.143c0.397-0.792-2.377-4.16-1.782-4.953
		c0.595-0.792,2.377,1.981,4.755,2.18c2.377,0.198,5.943-1.981,2.972-3.566c-2.972-1.584-0.99-1.188,1.981-2.773
		s6.935-3.17,7.133-3.963c0.198-0.792-2.576-2.576-1.387-3.963c1.188-1.387,2.179,1.784,3.368,0.991
		c1.188-0.793,2.18-5.943,3.17-6.538s1.585,0.99,3.368-1.387c1.782-2.378,1.782-3.567,1.585-6.143
		c-0.198-2.575,1.189-3.764,2.18-5.151c0.99-1.387,7.528-11.689,12.481-12.086s9.708-15.652,13.274-18.03
		c3.567-2.377,0.793-5.35,7.133-6.142s8.52-0.595,10.104-3.17c1.585-2.576,2.378-6.143,0-5.151c-2.377,0.99-6.736,6.736-12.482,0
		c0,0,4.359,2.575,6.736,0c2.378-2.576,5.35-3.17,3.17-4.558c-2.179-1.387-2.972-2.575-5.745-2.773
		c-2.774-0.198-10.304-3.368-5.151-2.179c5.151,1.188,9.51,1.387,8.718-0.397c-0.793-1.783,1.585-0.396,3.764,0.397
		c2.181,0.792,4.359-0.199,5.746-4.161c1.387-3.963,3.17-3.963,3.963-4.161c0.792-0.198-0.198-7.926-2.773-5.943
		c-2.576,1.98-2.774,8.123-3.566,6.34c-0.793-1.783,1.585-4.557-0.793-5.151s-3.17,0.99-6.34,0.99c-3.171,0-6.538,0.198-6.538-3.169
		c0,0,2.575,1.98,4.953,1.188c2.377-0.793,1.188-2.973,2.575-3.765c1.388-0.793,1.982,0,3.765-0.396
		c1.783-0.396-3.566-3.17-1.585-3.17s0.396,3.765,3.368,2.773c2.972-0.99-0.991-9.113-0.991-9.113l-3.169-7.728l-6.143,0.396
		c0,0-2.774-0.792-7.331-4.359c-4.557-3.566-10.897-0.594-10.897-0.594s2.774-3.566,10.897-1.387
		c8.124,2.179,6.736,5.548,7.925,4.358c1.189-1.188,1.982-5.746-0.989-5.944c-2.972-0.198-6.144-0.396-5.746-1.387
		c0.396-0.99,1.188,0,3.169-0.594c1.982-0.594-1.584-5.548-9.113-11.492c0,0,4.953,2.973,6.936,3.765
		c1.98,0.792,0.197-2.377,1.584-3.963c1.388-1.585-13.869-5.151-13.076-7.528c0.792-2.378,10.698,3.962,9.906-0.793
		c-0.793-4.755-10.897-12.68-6.736-21.992c4.16-9.312,4.755-8.322,6.142-9.312c1.387-0.991,1.585,0.198-0.594,4.557
		c-2.181,4.358-3.171,11.293-0.793,12.284c2.378,0.99,5.151,3.17,5.944,4.16c0.792,0.991-3.368-0.198-1.981,3.566
		c1.388,3.765,2.575,3.17,5.745,4.359s3.17,1.981,2.378,4.557c-0.792,2.576,0.198,5.35,0.792,9.511
		c0.595,4.161-2.179,8.717,0.991,9.51c3.17,0.792,0.595-2.18,3.368-7.133s1.387,1.387,1.981-0.199
		c0.594-1.584,0.594-5.944,0.792-8.321c0.198-2.377,0.793-2.18,1.981-2.576c1.189-0.396,1.981-4.954,0.991-5.944
		c-0.991-0.991-1.783-2.972-0.198-5.746s-0.396-8.718-2.18-10.104c-1.783-1.387-10.896-9.312-9.906-12.284
		c0.99-2.972,1.783,0.595,5.745,2.378c3.963,1.783,4.558,6.142,6.935,4.953c2.378-1.188,2.773-3.962,4.161-6.934
		c1.387-2.972,6.143-14.859,5.747-17.436c-0.396-2.575-1.585-6.736-0.991-10.303c0.595-3.566-2.576-3.368-3.368-4.358
		c-0.792-0.991-1.388-2.378,0-2.774c1.388-0.396-0.99,1.981,3.368,0.991c4.359-0.991,27.937-14.464,29.72-17.634
		c1.783-3.17-6.143,4.557-8.321,3.962c-2.18-0.594,0.99-3.566,1.584-5.35c0.595-1.783-2.773,4.359-6.538,5.35
		c-3.764,0.991-10.698,5.548-12.878,6.935c-2.18,1.387-5.35,3.962-4.755,1.585s1.188-5.746,0-7.132
		c-1.188-1.387,2.575,3.765,4.557,2.179c1.981-1.585,3.566-5.746,5.35-6.538s9.51-3.765,11.096-4.359
		c1.585-0.594,16.841-6.736,16.643-9.51c-0.198-2.773-1.186-6.538,0.002-8.717c1.187-2.18,4.555,5.151,4.356,5.746
		c-0.197,0.594,2.378-0.99,3.171-1.981c0.792-0.991,1.387-5.746,3.566-4.953c2.179,0.792-0.595,4.755,1.98,3.764
		c2.576-0.99,10.501-4.161,10.303-6.538s-3.17-6.935-6.142-6.538c0,0,2.774,0,2.377,3.17c-0.396,3.169-2.773,7.132-5.15,4.755
		c-2.378-2.377-2.973-3.17-3.765-4.954c-0.793-1.783-2.774-3.566-6.538-3.765c-3.765-0.198-2.18-2.773-0.992-6.142
		c1.189-3.368,4.359-3.962,4.162-4.755c-0.198-0.792-2.18,2.576-4.359-1.188c-2.18-3.765-0.792-8.123,1.387-13.671
		c2.18-5.547,1.387-8.322,2.773-12.086c1.388-3.765,2.973-1.387,5.35-3.17c2.378-1.783,8.52-4.755,8.916-8.322
		c0.396-3.566-1.188-7.925,1.189-9.906c2.377-1.981,1.981,0.594,4.358,0.792c2.378,0.198,1.783-1.585,4.161-3.369
		c2.377-1.783,2.377-2.179,4.16-1.188s0.991-1.981,1.981-2.179c0.991-0.198-0.595-1.189,2.18-2.972
		c2.773-1.783,2.575,0.594,4.755-2.18s1.814-1.387,3.963-3.368s1.98-5.152,0-4.557c-1.981,0.594,0.396-1.189-0.396-2.972
		c-0.792-1.783-0.99-2.575-3.764-1.981c-2.774,0.594-4.161-0.792-4.558-3.765c-0.396-2.972-1.585-4.755-1.783-5.547
		s-3.17,1.387-5.745,0c-2.576-1.387-10.7-29.72-10.7-29.72s-5.547-7.132-11.293-2.972c-5.745,4.161-8.718,5.151-11.095,1.387
		c-2.378-3.764-3.17,0.792-4.953,4.755c-1.783,3.962-3.963,14.859-3.171,17.435c0.793,2.576-1.188,5.151-1.387,7.727
		s2.575,7.331,1.585,8.916c-0.99,1.585-1.981,12.086-4.953,14.067c-2.972,1.982-7.925,4.359-8.123,6.737s2.576,2.774-2.774,4.557
		c-5.349,1.783-52.504,13.67-52.504,13.67s-10.501,12.086-11.492,16.445s-7.529,8.717-7.529,8.717
		c0.199,1.783,3.566,0.198,4.359,1.783c0.793,1.585-2.18,2.774-1.585,4.557s5.151,6.142,1.387,7.727
		c-3.764,1.585-7.528,6.142-8.717,7.529c-1.189,1.387-5.35-1.188-11.69,2.774c0,0-5.943-1.783-11.096-0.198
		c-5.151,1.585-12.68,5.151-12.68,5.151s1.981,5.349,3.368,4.953s1.981,3.963-0.197,6.34c-2.181,2.377-8.719,11.095-8.719,11.095
		s-21.2,17.832-25.559,18.426s-4.358,7.331-8.123,7.925c-3.765,0.595-10.501,3.368-11.293,3.764c-0.793,0.397-3.766-0.792-7.728,0
		c-3.962,0.793-0.99,0.198,1.188-1.386c2.18-1.585-3.566-1.585-4.756-1.585c-1.188,0-9.509-1.585-6.934-5.151
		s1.783-9.708,3.765-11.294c1.981-1.584,2.18-1.981,3.963-7.331s2.575-0.198,4.358-1.189c1.783-0.99,1.387-6.934,0.991-9.114
		c-0.397-2.179-7.927-23.181-10.304-23.181c-2.378,0-8.916,3.17-9.511,4.755c-0.594,1.585,0.397,2.972-1.98,5.35
		c-2.377,2.377-8.321,2.576-5.548-6.34c0,0,3.963-0.594,4.359-5.152c0.396-4.557,3.565-4.359,3.764-5.151
		c0.199-0.792-0.197-9.51-4.357-13.473c-4.161-3.963,2.773-2.774,2.574-3.963c-0.197-1.189-3.764-3.962-6.142-4.953
		c-2.377-0.991-12.283-5.35-14.265-5.547c-1.982-0.199-4.558-2.18-5.746-1.981c-1.188,0.198-8.521,5.151-3.566,8.321
		c4.953,3.17-4.755,2.972-4.755,2.972s0.197,10.105-0.991,11.294c-1.188,1.188-1.98-2.18-1.98-2.18s-0.991-6.538-2.18-5.746
		s-1.783,7.132-3.369,7.925c-1.584,0.792-2.972,4.557-3.565,6.34c-0.595,1.783-2.18,12.086-3.963,13.671s2.575,4.953,1.98,6.935
		c-0.594,1.981-3.962,1.783-2.179,5.151s14.464,19.813,6.143,34.078c-8.322,14.266-17.238,20.011-24.568-7.727
		c-7.331-27.738,0.792-38.635,0.792-38.635s3.171-11.293,0.396-15.652s-4.953,5.35-6.935,6.736s-3.368-2.972,1.387-9.708
		c4.756-6.736,10.104-17.436,10.303-20.209c0.198-2.774,6.736-3.17,7.133-1.189s-5.151,5.151-1.783,4.557
		c3.368-0.595,4.953-3.962,6.736-6.34c1.783-2.377,4.756-4.161,8.123-5.151c3.369-0.991,5.943-1.783,9.907-0.198
		c3.963,1.584,6.935,4.755,6.935,3.17c0-1.585-2.378-4.359,4.557-4.359c6.934,0,7.925,2.773,2.773-5.746
		c-5.15-8.52-5.943-2.773-7.925-2.972s-6.736,0.792-7.331-2.972c-0.595-3.764,2.576-6.142-8.123-0.792
		c-10.699,5.35-11.491,5.746-21.398,6.539c-9.906,0.792-8.52-1.585-10.5-4.557c-1.981-2.972-11.69-1.585-14.267-0.991
		c-2.574,0.595-0.989-5.746-4.952-8.123s-6.34,4.755-8.916,6.34c-2.576,1.585-5.151,3.368-8.321,4.359
		c-3.171,0.991-1.981,2.576-6.143,4.161c-4.16,1.585-8.915,0.396-10.698,0.991c-1.783,0.594,1.98-4.558,1.188-6.143
		s-1.981-1.387-5.746,0.396c-3.764,1.783-5.547,5.547-12.283,4.557c-6.736-0.99,1.783-4.359,5.745-9.51
		c3.963-5.152,11.294-13.473,16.247-15.455c4.953-1.981,11.689-7.331,12.878-7.529c0,0-4.359,1.189-6.538-0.198
		c-2.179-1.387-6.935-1.585-10.501-0.793c-3.566,0.793-1.981-1.783-3.17-1.981c-1.188-0.198-5.547,4.557-10.501,3.962
		c-4.953-0.594-6.736-4.359-9.114-5.151c-2.377-0.792-2.972,0.198-3.764,0.991c-0.793,0.792-0.991,0-3.566-2.576
		c-2.576-2.576-11.492-3.962-15.851-2.972c-4.359,0.991-4.755-1.387-9.312-2.377c-4.558-0.991-10.105-2.972-9.906-7.133
		c0.197-4.161-4.359-13.473-6.737-3.368c0,0,0.99,2.972-7.133,2.972c0,0-66.769-0.198-69.543-0.198
		c-2.773,0-123.236-7.529-154.343-13.076C243.456,33.879,105.954,10.106,81.188,0c0,0-0.197,5.348,1.189,8.122
		s-0.595,5.35-0.595,9.114c0,3.765,1.387,7.727-1.188,10.303c-2.576,2.576-0.793,3.566-2.774,7.133
		c-1.981,3.566-3.566,8.123-7.331,6.34c-3.764-1.783-4.161-6.142-1.387-5.151c2.774,0.99,0.595,2.575,1.387,3.368
		c0.793,0.792,0.199-2.18,1.387-2.378c1.188-0.198,0,2.18,1.188,1.585c1.189-0.594,1.189-2.377,1.982-5.151
		c0.792-2.774-1.585-1.387-0.595-2.972c0.991-1.585,1.387-1.585,2.378-2.774c0.99-1.189,1.981-4.161,0.594-3.566
		c-1.387,0.595-1.784,2.576-3.17,3.566s-6.34,2.576-5.746,4.557s-2.774,1.585-0.594-1.981c2.179-3.566,4.358-2.972,5.745-4.359
		c1.388-1.387,2.774-2.576,1.784-5.35c-0.991-2.773-1.981-3.764-4.359-3.368c-2.377,0.396-4.359-1.189-7.727-2.576
		C59.988,13.075,48.074,5.102,48.074,5.102z"/>
</g>
<g id="Layer_4">
	<path fill="#E4950C" d="M44.533,54.882c0,0-1.011,27.492-30.314,74.496c0,0-1.163,2.18-0.582,5.449
		c0.582,3.269,0.328,5.188,0.145,7.225c-0.184,2.038-0.427,7.803-0.427,7.803s91.611,27.283,119.428,30.641
		c0,0,8.192-41.318,9.153-42.733c0.96-1.415,2.414-3.066,3.229-4.485c0.815-1.419,2.217-3.4,0.38-3.825
		c-1.837-0.425-3.573-0.576-3.725-1.787c-0.151-1.212-0.806-5.876,4.04-9.778c4.846-3.903,4.017-5.342,6.015-8.177
		c1.998-2.835,4.767-5.574,5.688-7.821c0.921-2.247,2.04-4.365,0.582-5.995s-3.999-5.412-4.557-6.736c0,0-21.712-4.152-27.366-5.061
		c-5.654-0.909-13.479-2.171-16.508-1.666s-11.914,0.606-16.609,0.151c-4.695-0.454-6.26,0.656-8.582-0.656
		c-2.322-1.313-8.128-5.099-10.046-4.695s-6.411,3.736-9.693,0.808c-3.281-2.928-3.734-2.624-4.06-7.926
		c-0.326-5.302-0.38-8.048-1.82-8.593c-1.44-0.544-1.793,0.264-2.955,0.162c-1.161-0.101-1.818-0.82-2.121-2.404
		c-0.303-1.584-1.762-1.246-2.219-1.213S45.689,56.208,44.533,54.882z"/>
</g>
</svg>
